<svg width="183" height="83" viewBox="0 0 183 83" fill="none" xmlns="http://www.w3.org/2000/svg">
<g filter="url(#filter0_d_3480_43088)">
<rect x="16" y="31" width="132" height="36" rx="18" fill="#603BE5"/>
<path d="M33.754 54.14C33.0447 54.14 32.382 54.014 31.766 53.762C31.15 53.5007 30.6087 53.1413 30.142 52.684C29.6753 52.2267 29.3113 51.6947 29.05 51.088C28.798 50.472 28.672 49.8093 28.672 49.1C28.672 48.4 28.798 47.7467 29.05 47.14C29.3113 46.5333 29.6707 46.006 30.128 45.558C30.5947 45.1007 31.136 44.746 31.752 44.494C32.368 44.242 33.0307 44.116 33.74 44.116C34.2347 44.116 34.7153 44.186 35.182 44.326C35.658 44.466 36.0873 44.662 36.47 44.914C36.8527 45.166 37.1653 45.4553 37.408 45.782L36.428 46.804C36.148 46.5333 35.8587 46.3093 35.56 46.132C35.2707 45.9547 34.972 45.8193 34.664 45.726C34.356 45.6327 34.048 45.586 33.74 45.586C33.236 45.586 32.7693 45.6747 32.34 45.852C31.92 46.0293 31.5467 46.2767 31.22 46.594C30.9027 46.9113 30.6553 47.2847 30.478 47.714C30.3007 48.134 30.212 48.596 30.212 49.1C30.212 49.5853 30.3053 50.0473 30.492 50.486C30.6787 50.9153 30.9353 51.2933 31.262 51.62C31.598 51.9467 31.9807 52.2033 32.41 52.39C32.8487 52.5767 33.3107 52.67 33.796 52.67C34.16 52.67 34.5053 52.6187 34.832 52.516C35.1587 52.404 35.448 52.25 35.7 52.054C35.952 51.858 36.148 51.634 36.288 51.382C36.428 51.1207 36.498 50.8453 36.498 50.556V50.276L36.708 50.472H33.712V48.974H38.052C38.0707 49.0767 38.0847 49.1793 38.094 49.282C38.1033 49.3753 38.108 49.4687 38.108 49.562C38.1173 49.646 38.122 49.73 38.122 49.814C38.122 50.458 38.01 51.046 37.786 51.578C37.562 52.1007 37.2493 52.5533 36.848 52.936C36.456 53.3187 35.994 53.6173 35.462 53.832C34.9393 54.0373 34.37 54.14 33.754 54.14ZM43.1568 54.14C42.4008 54.14 41.7288 53.9813 41.1408 53.664C40.5621 53.3373 40.1048 52.894 39.7688 52.334C39.4421 51.774 39.2788 51.13 39.2788 50.402C39.2788 49.8233 39.3721 49.296 39.5588 48.82C39.7454 48.344 40.0021 47.9333 40.3288 47.588C40.6648 47.2333 41.0614 46.9627 41.5188 46.776C41.9854 46.58 42.4894 46.482 43.0308 46.482C43.5068 46.482 43.9501 46.5753 44.3608 46.762C44.7714 46.9393 45.1261 47.1867 45.4248 47.504C45.7328 47.8213 45.9661 48.1993 46.1248 48.638C46.2928 49.0673 46.3721 49.5387 46.3628 50.052L46.3488 50.668H40.3428L40.0208 49.52H45.1028L44.8928 49.758V49.422C44.8648 49.114 44.7621 48.8387 44.5848 48.596C44.4074 48.3533 44.1834 48.162 43.9128 48.022C43.6421 47.882 43.3481 47.812 43.0308 47.812C42.5268 47.812 42.1021 47.91 41.7568 48.106C41.4114 48.2927 41.1501 48.5727 40.9728 48.946C40.7954 49.31 40.7068 49.7627 40.7068 50.304C40.7068 50.8173 40.8141 51.2653 41.0288 51.648C41.2434 52.0213 41.5468 52.3107 41.9388 52.516C42.3308 52.7213 42.7834 52.824 43.2968 52.824C43.6608 52.824 43.9968 52.7633 44.3048 52.642C44.6221 52.5207 44.9628 52.3013 45.3268 51.984L46.0548 53.006C45.8308 53.23 45.5554 53.426 45.2288 53.594C44.9114 53.762 44.5708 53.8973 44.2068 54C43.8521 54.0933 43.5021 54.14 43.1568 54.14ZM48.8399 54V44.774H50.2819V54H48.8399ZM47.3139 48.05V46.65H51.9899V48.05H47.3139ZM60.6148 54.14C60.0828 54.14 59.5881 54.07 59.1308 53.93C58.6828 53.79 58.2721 53.58 57.8988 53.3C57.5348 53.0107 57.2081 52.656 56.9188 52.236L57.9548 51.046C58.4121 51.6993 58.8508 52.152 59.2708 52.404C59.6908 52.656 60.1901 52.782 60.7688 52.782C61.1234 52.782 61.4454 52.726 61.7348 52.614C62.0241 52.502 62.2528 52.348 62.4208 52.152C62.5888 51.956 62.6728 51.732 62.6728 51.48C62.6728 51.312 62.6448 51.1533 62.5888 51.004C62.5328 50.8547 62.4441 50.7193 62.3228 50.598C62.2108 50.4767 62.0614 50.3647 61.8748 50.262C61.6974 50.1593 61.4874 50.0707 61.2448 49.996C61.0021 49.912 60.7221 49.842 60.4048 49.786C59.9008 49.6833 59.4621 49.548 59.0888 49.38C58.7154 49.212 58.4028 49.002 58.1508 48.75C57.8988 48.498 57.7121 48.2133 57.5908 47.896C57.4694 47.5693 57.4088 47.2053 57.4088 46.804C57.4088 46.412 57.4928 46.048 57.6608 45.712C57.8381 45.376 58.0761 45.0867 58.3748 44.844C58.6828 44.592 59.0421 44.4007 59.4528 44.27C59.8634 44.13 60.3068 44.06 60.7828 44.06C61.2868 44.06 61.7488 44.1253 62.1688 44.256C62.5888 44.3867 62.9621 44.5827 63.2887 44.844C63.6154 45.096 63.8861 45.4087 64.1008 45.782L63.0368 46.832C62.8501 46.524 62.6401 46.2673 62.4068 46.062C62.1734 45.8473 61.9168 45.6887 61.6368 45.586C61.3568 45.474 61.0581 45.418 60.7408 45.418C60.3768 45.418 60.0594 45.474 59.7888 45.586C59.5181 45.698 59.3034 45.8567 59.1448 46.062C58.9954 46.258 58.9208 46.4913 58.9208 46.762C58.9208 46.958 58.9581 47.14 59.0328 47.308C59.1074 47.4667 59.2194 47.6113 59.3688 47.742C59.5274 47.8633 59.7374 47.9753 59.9988 48.078C60.2601 48.1713 60.5728 48.2553 60.9368 48.33C61.4501 48.442 61.9074 48.5867 62.3088 48.764C62.7101 48.932 63.0508 49.1327 63.3308 49.366C63.6108 49.5993 63.8208 49.8607 63.9608 50.15C64.1101 50.4393 64.1848 50.752 64.1848 51.088C64.1848 51.7133 64.0401 52.2547 63.7508 52.712C63.4614 53.1693 63.0508 53.524 62.5188 53.776C61.9868 54.0187 61.3521 54.14 60.6148 54.14ZM66.8731 54V44.774H68.3151V54H66.8731ZM65.3471 48.05V46.65H70.0231V48.05H65.3471ZM74.0958 54.14C73.4891 54.14 72.9338 53.972 72.4298 53.636C71.9351 53.3 71.5384 52.8427 71.2398 52.264C70.9411 51.6853 70.7918 51.032 70.7918 50.304C70.7918 49.5667 70.9411 48.9133 71.2398 48.344C71.5478 47.7653 71.9584 47.3127 72.4718 46.986C72.9944 46.6593 73.5778 46.496 74.2218 46.496C74.6044 46.496 74.9544 46.552 75.2718 46.664C75.5891 46.776 75.8644 46.9347 76.0978 47.14C76.3404 47.336 76.5364 47.5647 76.6858 47.826C76.8444 48.0873 76.9424 48.3673 76.9798 48.666L76.6578 48.554V46.65H78.1138V54H76.6578V52.25L76.9938 52.152C76.9378 52.404 76.8211 52.6513 76.6438 52.894C76.4758 53.1273 76.2564 53.3373 75.9858 53.524C75.7244 53.7107 75.4304 53.86 75.1038 53.972C74.7864 54.084 74.4504 54.14 74.0958 54.14ZM74.4738 52.81C74.9124 52.81 75.2998 52.7027 75.6358 52.488C75.9718 52.2733 76.2331 51.9793 76.4198 51.606C76.6158 51.2233 76.7138 50.7893 76.7138 50.304C76.7138 49.828 76.6158 49.4033 76.4198 49.03C76.2331 48.6567 75.9718 48.3627 75.6358 48.148C75.2998 47.9333 74.9124 47.826 74.4738 47.826C74.0444 47.826 73.6618 47.9333 73.3258 48.148C72.9991 48.3627 72.7378 48.6567 72.5418 49.03C72.3551 49.4033 72.2618 49.828 72.2618 50.304C72.2618 50.7893 72.3551 51.2233 72.5418 51.606C72.7378 51.9793 72.9991 52.2733 73.3258 52.488C73.6618 52.7027 74.0444 52.81 74.4738 52.81ZM80.1271 54V46.65H81.5831V48.96L81.4431 48.4C81.5458 48.0453 81.7185 47.7233 81.9611 47.434C82.2131 47.1447 82.4978 46.916 82.8151 46.748C83.1418 46.58 83.4778 46.496 83.8231 46.496C83.9818 46.496 84.1311 46.51 84.2711 46.538C84.4205 46.566 84.5371 46.5987 84.6211 46.636L84.2431 48.204C84.1311 48.1573 84.0051 48.12 83.8651 48.092C83.7345 48.0547 83.6038 48.036 83.4731 48.036C83.2211 48.036 82.9785 48.0873 82.7451 48.19C82.5211 48.2833 82.3205 48.4187 82.1431 48.596C81.9751 48.764 81.8398 48.9647 81.7371 49.198C81.6345 49.422 81.5831 49.6693 81.5831 49.94V54H80.1271ZM86.9571 54V44.774H88.3991V54H86.9571ZM85.4311 48.05V46.65H90.1071V48.05H85.4311ZM94.7818 54.14C94.0258 54.14 93.3538 53.9813 92.7658 53.664C92.1871 53.3373 91.7298 52.894 91.3938 52.334C91.0671 51.774 90.9038 51.13 90.9038 50.402C90.9038 49.8233 90.9971 49.296 91.1838 48.82C91.3704 48.344 91.6271 47.9333 91.9538 47.588C92.2898 47.2333 92.6864 46.9627 93.1438 46.776C93.6104 46.58 94.1144 46.482 94.6558 46.482C95.1318 46.482 95.5751 46.5753 95.9858 46.762C96.3964 46.9393 96.7511 47.1867 97.0498 47.504C97.3578 47.8213 97.5911 48.1993 97.7498 48.638C97.9178 49.0673 97.9971 49.5387 97.9878 50.052L97.9738 50.668H91.9678L91.6458 49.52H96.7278L96.5178 49.758V49.422C96.4898 49.114 96.3871 48.8387 96.2098 48.596C96.0324 48.3533 95.8084 48.162 95.5378 48.022C95.2671 47.882 94.9731 47.812 94.6558 47.812C94.1518 47.812 93.7271 47.91 93.3818 48.106C93.0364 48.2927 92.7751 48.5727 92.5978 48.946C92.4204 49.31 92.3318 49.7627 92.3318 50.304C92.3318 50.8173 92.4391 51.2653 92.6538 51.648C92.8684 52.0213 93.1718 52.3107 93.5638 52.516C93.9558 52.7213 94.4084 52.824 94.9218 52.824C95.2858 52.824 95.6218 52.7633 95.9298 52.642C96.2471 52.5207 96.5878 52.3013 96.9518 51.984L97.6798 53.006C97.4558 53.23 97.1804 53.426 96.8538 53.594C96.5364 53.762 96.1958 53.8973 95.8318 54C95.4771 54.0933 95.1271 54.14 94.7818 54.14ZM102.621 54.14C101.949 54.14 101.347 53.9767 100.815 53.65C100.292 53.314 99.8769 52.8613 99.5689 52.292C99.2609 51.7133 99.1069 51.0553 99.1069 50.318C99.1069 49.5807 99.2562 48.9273 99.5549 48.358C99.8629 47.7793 100.278 47.3267 100.801 47C101.324 46.664 101.916 46.496 102.579 46.496C102.943 46.496 103.293 46.5567 103.629 46.678C103.974 46.79 104.282 46.9487 104.553 47.154C104.824 47.35 105.034 47.5693 105.183 47.812C105.342 48.0453 105.421 48.2833 105.421 48.526L105.001 48.554V43.64H106.443V54H105.001V52.25H105.281C105.281 52.474 105.206 52.698 105.057 52.922C104.908 53.1367 104.707 53.3373 104.455 53.524C104.212 53.7107 103.928 53.86 103.601 53.972C103.284 54.084 102.957 54.14 102.621 54.14ZM102.817 52.894C103.256 52.894 103.643 52.782 103.979 52.558C104.315 52.334 104.576 52.0307 104.763 51.648C104.959 51.256 105.057 50.8127 105.057 50.318C105.057 49.8233 104.959 49.3847 104.763 49.002C104.576 48.61 104.315 48.302 103.979 48.078C103.643 47.854 103.256 47.742 102.817 47.742C102.378 47.742 101.991 47.854 101.655 48.078C101.319 48.302 101.053 48.61 100.857 49.002C100.67 49.3847 100.577 49.8233 100.577 50.318C100.577 50.8127 100.67 51.256 100.857 51.648C101.053 52.0307 101.319 52.334 101.655 52.558C101.991 52.782 102.378 52.894 102.817 52.894Z" fill="#FCFCFC"/>
<circle cx="127" cy="49" r="9" fill="#FCFCFC"/>
<path d="M126.53 45.4697C126.237 45.1768 125.763 45.1768 125.47 45.4697C125.177 45.7626 125.177 46.2374 125.47 46.5303L126.53 45.4697ZM129 49L129.53 49.5303C129.823 49.2374 129.823 48.7626 129.53 48.4697L129 49ZM125.47 51.4697C125.177 51.7626 125.177 52.2374 125.47 52.5303C125.763 52.8232 126.237 52.8232 126.53 52.5303L125.47 51.4697ZM125.47 46.5303L128.47 49.5303L129.53 48.4697L126.53 45.4697L125.47 46.5303ZM128.47 48.4697L125.47 51.4697L126.53 52.5303L129.53 49.5303L128.47 48.4697Z" fill="#603BE5"/>
</g>
<defs>
<filter id="filter0_d_3480_43088" x="-19" y="0" width="202" height="106" filterUnits="userSpaceOnUse" color-interpolation-filters="sRGB">
<feFlood flood-opacity="0" result="BackgroundImageFix"/>
<feColorMatrix in="SourceAlpha" type="matrix" values="0 0 0 0 0 0 0 0 0 0 0 0 0 0 0 0 0 0 127 0" result="hardAlpha"/>
<feOffset dy="4"/>
<feGaussianBlur stdDeviation="17.5"/>
<feComposite in2="hardAlpha" operator="out"/>
<feColorMatrix type="matrix" values="0 0 0 0 0 0 0 0 0 0 0 0 0 0 0 0 0 0 0.1 0"/>
<feBlend mode="normal" in2="BackgroundImageFix" result="effect1_dropShadow_3480_43088"/>
<feBlend mode="normal" in="SourceGraphic" in2="effect1_dropShadow_3480_43088" result="shape"/>
</filter>
</defs>
</svg>
