<svg width="24" height="24" viewBox="0 0 24 24" fill="none" xmlns="http://www.w3.org/2000/svg">
<path d="M9 10.9998H9.75C9.75 10.5856 9.41421 10.2498 9 10.2498V10.9998ZM9 19.9998V20.7498C9.41421 20.7498 9.75 20.414 9.75 19.9998H9ZM3 19.9998H2.25C2.25 20.414 2.58579 20.7498 3 20.7498V19.9998ZM4 11.7498H9V10.2498H4V11.7498ZM8.25 10.9998V19.9998H9.75V10.9998H8.25ZM9 19.2498H3V20.7498H9V19.2498ZM3.75 19.9998V11.9998H2.25V19.9998H3.75ZM4 10.2498C3.0335 10.2498 2.25 11.0333 2.25 11.9998H3.75C3.75 11.8617 3.86193 11.7498 4 11.7498V10.2498Z" fill="#282828"/>
<path d="M15 7.99982V7.24982C14.5858 7.24982 14.25 7.5856 14.25 7.99982H15ZM21 19.9998V20.7498C21.4142 20.7498 21.75 20.414 21.75 19.9998H21ZM15 19.9998H14.25C14.25 20.414 14.5858 20.7498 15 20.7498V19.9998ZM15 8.74982H20V7.24982H15V8.74982ZM20.25 8.99982V19.9998H21.75V8.99982H20.25ZM21 19.2498H15V20.7498H21V19.2498ZM15.75 19.9998V7.99982H14.25V19.9998H15.75ZM20 8.74982C20.1381 8.74982 20.25 8.86175 20.25 8.99982H21.75C21.75 8.03332 20.9665 7.24982 20 7.24982V8.74982Z" fill="#282828"/>
<path d="M15 20.0002V20.7502C15.4142 20.7502 15.75 20.4144 15.75 20.0002H15ZM9 20.0002H8.25C8.25 20.4144 8.58579 20.7502 9 20.7502V20.0002ZM10 4.75018H14V3.25018H10V4.75018ZM14.25 5.00018V20.0002H15.75V5.00018H14.25ZM15 19.2502H9V20.7502H15V19.2502ZM9.75 20.0002V5.00018H8.25V20.0002H9.75ZM14 4.75018C14.1381 4.75018 14.25 4.86211 14.25 5.00018H15.75C15.75 4.03368 14.9665 3.25018 14 3.25018V4.75018ZM10 3.25018C9.0335 3.25018 8.25 4.03368 8.25 5.00018H9.75C9.75 4.86211 9.86193 4.75018 10 4.75018V3.25018Z" fill="#282828"/>
</svg>
