<svg width="58" height="63" viewBox="0 0 58 63" fill="none" xmlns="http://www.w3.org/2000/svg">
<rect x="9" width="40" height="40" rx="20" fill="#1877F2"/>
<path d="M36.7852 25.7812L37.6719 20H32.125V16.25C32.125 14.668 32.8984 13.125 35.3828 13.125H37.9062V8.20312C37.9062 8.20312 35.6172 7.8125 33.4297 7.8125C28.8594 7.8125 25.875 10.582 25.875 15.5938V20H20.7969V25.7812H25.875V39.7578C26.8945 39.918 27.9375 40 29 40C30.0625 40 31.1055 39.918 32.125 39.7578V25.7812H36.7852Z" fill="white"/>
<path opacity="0.6" d="M1.176 60V51.6H2.472V60H1.176ZM1.752 56.424V55.176H6.084V56.424H1.752ZM1.752 52.848V51.6H6.624V52.848H1.752ZM10.331 60.12C9.81097 60.12 9.33497 59.976 8.90297 59.688C8.47897 59.4 8.13897 59.008 7.88297 58.512C7.62697 58.016 7.49897 57.456 7.49897 56.832C7.49897 56.2 7.62697 55.64 7.88297 55.152C8.14697 54.656 8.49897 54.268 8.93897 53.988C9.38697 53.708 9.88697 53.568 10.439 53.568C10.767 53.568 11.067 53.616 11.339 53.712C11.611 53.808 11.847 53.944 12.047 54.12C12.255 54.288 12.423 54.484 12.551 54.708C12.687 54.932 12.771 55.172 12.803 55.428L12.527 55.332V53.7H13.775V60H12.527V58.5L12.815 58.416C12.767 58.632 12.667 58.844 12.515 59.052C12.371 59.252 12.183 59.432 11.951 59.592C11.727 59.752 11.475 59.88 11.195 59.976C10.923 60.072 10.635 60.12 10.331 60.12ZM10.655 58.98C11.031 58.98 11.363 58.888 11.651 58.704C11.939 58.52 12.163 58.268 12.323 57.948C12.491 57.62 12.575 57.248 12.575 56.832C12.575 56.424 12.491 56.06 12.323 55.74C12.163 55.42 11.939 55.168 11.651 54.984C11.363 54.8 11.031 54.708 10.655 54.708C10.287 54.708 9.95897 54.8 9.67097 54.984C9.39097 55.168 9.16697 55.42 8.99897 55.74C8.83897 56.06 8.75897 56.424 8.75897 56.832C8.75897 57.248 8.83897 57.62 8.99897 57.948C9.16697 58.268 9.39097 58.52 9.67097 58.704C9.95897 58.888 10.287 58.98 10.655 58.98ZM18.1767 60.12C17.5927 60.12 17.0687 59.976 16.6047 59.688C16.1487 59.4 15.7847 59.008 15.5127 58.512C15.2487 58.016 15.1167 57.46 15.1167 56.844C15.1167 56.228 15.2487 55.672 15.5127 55.176C15.7847 54.68 16.1487 54.288 16.6047 54C17.0687 53.712 17.5927 53.568 18.1767 53.568C18.7367 53.568 19.2447 53.684 19.7007 53.916C20.1647 54.14 20.5167 54.448 20.7567 54.84L20.0727 55.68C19.9447 55.496 19.7807 55.328 19.5807 55.176C19.3807 55.024 19.1687 54.904 18.9447 54.816C18.7207 54.728 18.5047 54.684 18.2967 54.684C17.9127 54.684 17.5687 54.78 17.2647 54.972C16.9687 55.156 16.7327 55.412 16.5567 55.74C16.3807 56.068 16.2927 56.436 16.2927 56.844C16.2927 57.252 16.3847 57.62 16.5687 57.948C16.7527 58.268 16.9967 58.524 17.3007 58.716C17.6047 58.908 17.9407 59.004 18.3087 59.004C18.5247 59.004 18.7327 58.968 18.9327 58.896C19.1407 58.824 19.3407 58.716 19.5327 58.572C19.7247 58.428 19.9047 58.252 20.0727 58.044L20.7567 58.884C20.5007 59.244 20.1327 59.54 19.6527 59.772C19.1807 60.004 18.6887 60.12 18.1767 60.12ZM24.8626 60.12C24.2146 60.12 23.6386 59.984 23.1346 59.712C22.6386 59.432 22.2466 59.052 21.9586 58.572C21.6786 58.092 21.5386 57.54 21.5386 56.916C21.5386 56.42 21.6186 55.968 21.7786 55.56C21.9386 55.152 22.1586 54.8 22.4386 54.504C22.7266 54.2 23.0666 53.968 23.4586 53.808C23.8586 53.64 24.2906 53.556 24.7546 53.556C25.1626 53.556 25.5426 53.636 25.8946 53.796C26.2466 53.948 26.5506 54.16 26.8066 54.432C27.0706 54.704 27.2706 55.028 27.4066 55.404C27.5506 55.772 27.6186 56.176 27.6106 56.616L27.5986 57.144H22.4506L22.1746 56.16H26.5306L26.3506 56.364V56.076C26.3266 55.812 26.2386 55.576 26.0866 55.368C25.9346 55.16 25.7426 54.996 25.5106 54.876C25.2786 54.756 25.0266 54.696 24.7546 54.696C24.3226 54.696 23.9586 54.78 23.6626 54.948C23.3666 55.108 23.1426 55.348 22.9906 55.668C22.8386 55.98 22.7626 56.368 22.7626 56.832C22.7626 57.272 22.8546 57.656 23.0386 57.984C23.2226 58.304 23.4826 58.552 23.8186 58.728C24.1546 58.904 24.5426 58.992 24.9826 58.992C25.2946 58.992 25.5826 58.94 25.8466 58.836C26.1186 58.732 26.4106 58.544 26.7226 58.272L27.3466 59.148C27.1546 59.34 26.9186 59.508 26.6386 59.652C26.3666 59.796 26.0746 59.912 25.7626 60C25.4586 60.08 25.1586 60.12 24.8626 60.12ZM32.2658 60.12C31.9938 60.12 31.7218 60.076 31.4498 59.988C31.1858 59.9 30.9418 59.784 30.7178 59.64C30.5018 59.488 30.3178 59.324 30.1658 59.148C30.0218 58.964 29.9258 58.78 29.8778 58.596L30.1898 58.428V59.964H28.9538V51.12H30.1898V55.14L29.9978 55.032C30.0378 54.848 30.1258 54.672 30.2618 54.504C30.3978 54.328 30.5698 54.172 30.7778 54.036C30.9938 53.892 31.2258 53.78 31.4738 53.7C31.7218 53.612 31.9738 53.568 32.2298 53.568C32.7978 53.568 33.3018 53.708 33.7418 53.988C34.1818 54.268 34.5298 54.656 34.7858 55.152C35.0418 55.64 35.1698 56.2 35.1698 56.832C35.1698 57.464 35.0418 58.028 34.7858 58.524C34.5378 59.02 34.1938 59.412 33.7538 59.7C33.3138 59.98 32.8178 60.12 32.2658 60.12ZM32.0618 58.992C32.4298 58.992 32.7578 58.9 33.0458 58.716C33.3338 58.524 33.5618 58.268 33.7298 57.948C33.8978 57.62 33.9818 57.248 33.9818 56.832C33.9818 56.424 33.8978 56.06 33.7298 55.74C33.5698 55.412 33.3458 55.156 33.0578 54.972C32.7698 54.788 32.4378 54.696 32.0618 54.696C31.6858 54.696 31.3538 54.788 31.0658 54.972C30.7778 55.156 30.5498 55.412 30.3818 55.74C30.2138 56.06 30.1298 56.424 30.1298 56.832C30.1298 57.248 30.2138 57.62 30.3818 57.948C30.5498 58.268 30.7778 58.524 31.0658 58.716C31.3538 58.9 31.6858 58.992 32.0618 58.992ZM39.3444 60.12C38.7284 60.12 38.1764 59.98 37.6884 59.7C37.2084 59.412 36.8284 59.024 36.5484 58.536C36.2684 58.04 36.1284 57.476 36.1284 56.844C36.1284 56.212 36.2684 55.652 36.5484 55.164C36.8284 54.668 37.2084 54.28 37.6884 54C38.1764 53.712 38.7284 53.568 39.3444 53.568C39.9524 53.568 40.4964 53.712 40.9764 54C41.4644 54.28 41.8484 54.668 42.1284 55.164C42.4084 55.652 42.5484 56.212 42.5484 56.844C42.5484 57.476 42.4084 58.04 42.1284 58.536C41.8484 59.024 41.4644 59.412 40.9764 59.7C40.4964 59.98 39.9524 60.12 39.3444 60.12ZM39.3444 58.992C39.7204 58.992 40.0564 58.9 40.3524 58.716C40.6484 58.524 40.8804 58.268 41.0484 57.948C41.2164 57.62 41.2964 57.252 41.2884 56.844C41.2964 56.428 41.2164 56.06 41.0484 55.74C40.8804 55.412 40.6484 55.156 40.3524 54.972C40.0564 54.788 39.7204 54.696 39.3444 54.696C38.9684 54.696 38.6284 54.792 38.3244 54.984C38.0284 55.168 37.7964 55.424 37.6284 55.752C37.4604 56.072 37.3804 56.436 37.3884 56.844C37.3804 57.252 37.4604 57.62 37.6284 57.948C37.7964 58.268 38.0284 58.524 38.3244 58.716C38.6284 58.9 38.9684 58.992 39.3444 58.992ZM46.7273 60.12C46.1113 60.12 45.5593 59.98 45.0713 59.7C44.5913 59.412 44.2113 59.024 43.9313 58.536C43.6513 58.04 43.5113 57.476 43.5113 56.844C43.5113 56.212 43.6513 55.652 43.9313 55.164C44.2113 54.668 44.5913 54.28 45.0713 54C45.5593 53.712 46.1113 53.568 46.7273 53.568C47.3353 53.568 47.8793 53.712 48.3593 54C48.8473 54.28 49.2313 54.668 49.5113 55.164C49.7913 55.652 49.9313 56.212 49.9313 56.844C49.9313 57.476 49.7913 58.04 49.5113 58.536C49.2313 59.024 48.8473 59.412 48.3593 59.7C47.8793 59.98 47.3353 60.12 46.7273 60.12ZM46.7273 58.992C47.1033 58.992 47.4393 58.9 47.7353 58.716C48.0313 58.524 48.2633 58.268 48.4313 57.948C48.5993 57.62 48.6793 57.252 48.6713 56.844C48.6793 56.428 48.5993 56.06 48.4313 55.74C48.2633 55.412 48.0313 55.156 47.7353 54.972C47.4393 54.788 47.1033 54.696 46.7273 54.696C46.3513 54.696 46.0113 54.792 45.7073 54.984C45.4113 55.168 45.1793 55.424 45.0113 55.752C44.8433 56.072 44.7633 56.436 44.7713 56.844C44.7633 57.252 44.8433 57.62 45.0113 57.948C45.1793 58.268 45.4113 58.524 45.7073 58.716C46.0113 58.9 46.3513 58.992 46.7273 58.992ZM52.4061 58.032L52.3461 56.688L55.3581 53.7H57.0261L52.4061 58.032ZM51.2781 60V51.12H52.5141V60H51.2781ZM55.5261 60L53.1501 57.228L54.0261 56.424L57.1101 60H55.5261Z" fill="black"/>
</svg>
