<svg width="160" height="169" viewBox="0 0 160 169" fill="none" xmlns="http://www.w3.org/2000/svg">
<g clip-path="url(#clip0_3480_42989)">
<rect width="193" height="193" rx="96.5" fill="#F4F5FC"/>
<path d="M98.8894 94.9353C98.8894 94.9353 94.1415 74.0794 118.629 71.1074C130.391 69.6763 136.631 68.7182 139.939 68.1079C140.39 68.0248 140.853 68.0433 141.296 68.1618C141.739 68.2804 142.15 68.4961 142.499 68.7933C142.847 69.0905 143.126 69.4617 143.313 69.8799C143.501 70.2982 143.593 70.7529 143.582 71.2111L143.558 72.3432C143.471 76.6739 141.667 80.7926 138.544 83.7943C135.421 86.7959 131.234 88.4347 126.904 88.3505C116.962 88.1369 105.724 88.7624 103.354 92.424" fill="#292F36"/>
<path d="M102.284 93.8517C103.929 93.4398 105.049 92.2565 104.787 91.2086C104.524 90.1608 102.978 89.6452 101.334 90.0571C99.6893 90.4689 98.5689 91.6522 98.8313 92.7001C99.0937 93.748 100.64 94.2635 102.284 93.8517Z" fill="#FE5E41"/>
<path d="M82.852 121.814C70.9518 114.903 59.8663 106.558 50.3095 96.6226C45.5854 91.7395 41.2705 86.4766 37.4085 80.8868C33.5973 75.3395 30.1615 69.4077 27.6442 63.1616C26.2833 59.8051 25.5906 56.1161 27.3695 52.7657C27.9127 51.7465 30.1157 47.7249 31.5194 49.516C31.7269 49.7754 32.0839 49.4886 32.0289 49.2109C31.6536 47.3801 33.4722 45.6317 35.2817 46.0558C35.3337 46.0702 35.3886 46.0705 35.4407 46.0567C35.4929 46.0429 35.5405 46.0156 35.5786 45.9774C35.6168 45.9393 35.6441 45.8917 35.6579 45.8395C35.6716 45.7874 35.6713 45.7325 35.657 45.6805C35.2969 43.0472 38.7297 42.9984 40.3164 43.9839C41.7902 44.8993 42.9039 46.5959 43.8346 48.0178C44.7317 49.3879 45.5159 50.825 46.2756 52.2714C46.7613 53.2917 47.3384 54.266 47.9996 55.1824C48.2682 55.5211 48.6679 56.0154 49.1592 55.9421C49.5924 55.8781 50.0593 55.3654 50.337 55.0664C51.1334 54.212 51.7345 53.1929 52.4424 52.2653C53.0283 51.4994 53.9681 50.2636 55.0849 50.6175C56.3054 51.0051 56.8424 53.0586 56.4854 54.1571C55.4083 57.4526 53.8826 60.806 53.9375 64.3425C53.9681 66.0695 54.5905 67.6989 55.1855 69.2948C55.8281 71.018 56.5688 72.7031 57.4039 74.3417C60.6474 80.6946 65.3526 86.0985 70.5002 90.9776C72.0595 92.4545 73.6584 93.8916 75.2756 95.3105C77.0881 96.8972 79.1355 98.2245 81.1463 99.5488C82.9192 100.714 84.7012 101.99 86.5747 102.982C88.1645 103.81 89.8161 104.514 91.5148 105.087C91.8871 105.215 92.0457 104.626 91.6765 104.498C90.0327 103.941 88.4342 103.259 86.8951 102.457C85.1894 101.541 83.5661 100.394 81.9488 99.3383C79.9624 98.0445 77.8967 96.7538 76.0964 95.2098C74.5493 93.8855 73.045 92.5124 71.5499 91.121C66.091 86.0131 61.0899 80.359 57.7334 73.6246C56.8613 71.8722 56.101 70.0662 55.4571 68.2177C55.119 67.3533 54.8537 66.4623 54.6638 65.5539C54.5117 64.5078 54.523 63.4444 54.6973 62.4018C55.0199 60.5408 55.5164 58.7142 56.1803 56.946C56.6319 55.6309 57.4802 54.1632 57.1628 52.7443C56.9157 51.6459 56.3908 50.3399 55.2008 50.0134C54.2488 49.751 53.3944 50.3185 52.7597 50.9715C51.8962 51.8533 51.2615 52.9305 50.5231 53.9069C50.1934 54.3919 49.7886 54.8215 49.3239 55.1793C48.9883 55.4082 48.9089 55.2861 48.6282 54.9779C48.3585 54.6612 48.1176 54.3212 47.9081 53.9618C46.1231 51.0691 44.8324 47.9537 42.611 45.3296C41.3904 43.871 39.8648 42.5834 37.8234 42.7481C36.9504 42.7999 36.127 43.1714 35.5105 43.7917C35.007 44.3501 34.9796 45.1373 35.0772 45.8453L35.4525 45.4699C33.1732 44.936 30.9793 47.0902 31.4492 49.3757L31.9618 49.0705C30.6497 47.4136 28.9105 49.336 28.0744 50.4711C26.6708 52.3965 25.7035 54.5873 25.6608 57.004C25.5998 60.5863 27.278 63.9946 28.7762 67.1589C30.2981 70.3569 31.991 73.4707 33.8475 76.4868C41.3721 88.744 51.292 99.5 62.4508 108.526C68.7914 113.634 75.5161 118.246 82.5652 122.321C82.6349 122.357 82.7161 122.366 82.7917 122.344C82.8673 122.322 82.9314 122.271 82.9708 122.203C83.0102 122.135 83.0217 122.054 83.003 121.978C82.9843 121.902 82.9368 121.835 82.8703 121.793L82.852 121.814Z" fill="#292F36"/>
<path d="M27.4122 51.6369C28.4802 56.1132 30.6009 60.257 32.8161 64.2573C33.0084 64.6021 33.5332 64.2939 33.344 63.9521C31.1532 59.9854 29.0569 55.9057 28.0011 51.4752C27.9096 51.0938 27.3237 51.2555 27.4122 51.64V51.6369Z" fill="#292F36"/>
<path d="M31.2661 49.153C32.8104 53.2662 34.6723 57.2531 36.8348 61.0776C36.8771 61.144 36.9433 61.1916 37.0198 61.2103C37.0962 61.229 37.1769 61.2175 37.2451 61.1781C37.3132 61.1387 37.3635 61.0745 37.3854 60.9989C37.4073 60.9233 37.3992 60.8422 37.3627 60.7725C35.2282 56.9953 33.3918 53.0573 31.8703 48.9943C31.733 48.6312 31.1441 48.7868 31.2814 49.156L31.2661 49.153Z" fill="#292F36"/>
<path d="M35.0222 45.421C37.0108 49.7811 39.3263 53.9846 41.9488 57.9956C42.1624 58.3251 42.6903 58.0169 42.4767 57.6904C39.8541 53.6795 37.5387 49.476 35.5501 45.1159C35.3884 44.7589 34.8605 45.0671 35.0222 45.421Z" fill="#292F36"/>
<path d="M42.7298 62.2003C42.1348 64.4339 42.1195 67.0122 43.514 68.9712C44.0609 69.7858 44.8239 70.432 45.7175 70.8373C46.6111 71.2426 47.5999 71.391 48.5731 71.2658C48.9576 71.2078 48.7958 70.6189 48.4083 70.6799C46.5531 70.9607 44.7467 69.8713 43.8008 68.2968C42.742 66.5118 42.8 64.3057 43.3187 62.362C43.3401 62.2839 43.3297 62.2005 43.2896 62.1301C43.2496 62.0597 43.1832 62.0081 43.1051 61.9867C43.027 61.9652 42.9436 61.9757 42.8732 62.0157C42.8028 62.0558 42.7512 62.1222 42.7298 62.2003Z" fill="#292F36"/>
<path d="M40.2094 66.5672C40.422 66.3835 40.6692 66.244 40.9364 66.1571C41.2036 66.0701 41.4855 66.0373 41.7656 66.0607C42.1562 66.0881 42.1562 65.4779 41.7656 65.4504C41.4055 65.4271 41.0443 65.4759 40.7033 65.5937C40.3622 65.7116 40.048 65.8963 39.7792 66.137C39.474 66.3933 39.9134 66.8235 40.2094 66.5672Z" fill="#292F36"/>
<path d="M117.933 109.377C130.096 109.588 142.189 107.62 153.832 104.175C165.476 100.73 176.687 95.8659 187.504 90.3552L189.463 89.3483C190.11 89.0126 190.894 88.4115 191.614 88.2895C192.856 88.085 194.345 88.442 195.517 88.8265C197.927 89.6168 199.99 91.2157 201.699 93.0556C202.6 94.0349 203.425 95.0826 204.164 96.1894C204.924 97.3123 206.441 99.1339 205.269 100.437C204.43 101.367 202.983 101.45 201.824 101.493C201.41 101.505 201.002 101.6 200.625 101.772C200.248 101.944 199.908 102.189 199.627 102.493C198.876 103.25 198.348 104.193 197.671 105.008C196.814 106.039 195.596 106.756 194.461 107.449C193.097 108.273 191.629 109.142 190.046 109.414C188.462 109.685 186.942 109.917 185.392 110.195C183.842 110.473 182.271 110.805 180.742 111.232C179.212 111.698 177.708 112.247 176.238 112.877C173.239 114.098 170.178 115.156 167.13 116.234C164.082 117.311 161.11 118.37 158.135 119.52C155.16 120.67 152.032 121.598 148.962 122.483C142.821 124.27 136.57 125.654 130.249 126.626C128.611 126.873 126.967 127.088 125.318 127.273C124.933 127.316 124.927 127.926 125.318 127.884C131.809 127.145 138.241 125.952 144.566 124.314C147.809 123.481 151.025 122.544 154.214 121.531C157.338 120.536 160.368 119.303 163.45 118.193C166.645 117.042 169.858 115.935 173.034 114.751C176.15 113.594 179.165 112.2 182.408 111.428C183.992 111.049 185.594 110.766 187.199 110.512C188.645 110.271 190.268 110.207 191.62 109.621C193.09 108.976 194.498 108.199 195.828 107.299C196.825 106.691 197.709 105.916 198.443 105.008C199.111 104.132 199.694 103.043 200.643 102.439C201.558 101.865 202.803 102.133 203.823 101.877C204.781 101.636 205.794 101.105 206.172 100.132C206.645 98.9112 205.867 97.7211 205.257 96.7234C202.669 92.6224 198.904 88.5702 193.875 87.8043C193.287 87.7122 192.692 87.6673 192.096 87.67C191.33 87.67 190.943 87.8928 190.265 88.2467C188.884 88.973 187.497 89.6849 186.103 90.3827C183.235 91.829 180.34 93.2225 177.419 94.563C171.625 97.2295 165.701 99.6044 159.67 101.679C147.73 105.743 135.259 108.407 122.636 108.746C121.073 108.784 119.51 108.79 117.946 108.764C117.865 108.764 117.787 108.796 117.73 108.853C117.673 108.911 117.641 108.988 117.641 109.069C117.641 109.15 117.673 109.228 117.73 109.285C117.787 109.342 117.865 109.374 117.946 109.374L117.933 109.377Z" fill="#292F36"/>
<path d="M183.735 225.713C158.906 208.909 134.496 190.827 111.959 171.045C113.728 195.492 120.566 244.485 120.566 244.485L127.603 249.718C127.962 249.986 128.228 250.36 128.362 250.788C128.497 251.215 128.494 251.675 128.353 252.1C128.212 252.526 127.941 252.896 127.578 253.159C127.215 253.422 126.779 253.564 126.33 253.566H126.257L100.467 253.62C100.467 253.62 85.2807 193.555 85.6377 155.102C85.6664 150.717 87.3008 146.495 90.2319 143.234C93.163 139.973 97.1875 137.899 101.544 137.404C103.165 137.227 104.799 137.189 106.426 137.288C113.657 137.753 120.489 140.764 125.711 145.786C146.887 165.925 168.146 186.229 189.316 206.349C191.931 205.882 194.503 205.547 197.103 205.214C197.512 205.162 197.928 205.236 198.294 205.426C198.66 205.617 198.959 205.914 199.151 206.279C199.344 206.644 199.42 207.059 199.37 207.468C199.321 207.878 199.147 208.262 198.873 208.571C193.808 214.286 188.886 220.01 183.735 225.713Z" fill="#170C2C"/>
<path d="M113.442 127.987L111.653 128.164C106.286 128.717 100.806 129.129 95.3349 129.168C95.2586 129.168 95.1884 129.168 95.1152 129.168C95.0705 129.171 95.0256 129.171 94.9809 129.168H94.9626C94.1331 129.119 93.3245 128.889 92.593 128.494C91.8615 128.1 91.2248 127.551 90.7272 126.886C90.2296 126.22 89.8831 125.454 89.7118 124.641C89.5406 123.828 89.5487 122.987 89.7357 122.178C89.8058 121.872 89.8821 121.567 89.9584 121.262C90.0347 120.957 90.1079 120.652 90.1873 120.347C90.288 119.95 90.3887 119.557 90.4924 119.16C91.121 116.829 91.8136 114.476 92.8694 112.313C93.2973 111.421 93.7984 110.567 94.3676 109.759C94.3716 109.75 94.3767 109.742 94.3829 109.734C96.3662 106.945 99.4877 104.764 102.905 104.733C106.323 104.703 109.405 106.768 111.449 109.457C113.194 111.757 114.275 114.473 115.178 117.225C115.333 117.689 115.483 118.159 115.626 118.626C115.715 118.904 115.797 119.181 115.883 119.456C115.898 119.499 115.91 119.541 115.922 119.584C115.922 119.611 115.941 119.633 115.947 119.657C115.98 119.764 116.014 119.871 116.044 119.962C116.063 120.014 116.078 120.069 116.093 120.121C116.371 121.036 116.645 121.921 116.914 122.821C117.083 123.392 117.124 123.992 117.034 124.58C116.945 125.168 116.726 125.729 116.394 126.222C116.062 126.716 115.626 127.13 115.115 127.435C114.605 127.74 114.033 127.929 113.442 127.987Z" fill="#4ECDC4"/>
<path d="M112.554 173.434L111.388 161.775" stroke="#FCFCFC" stroke-width="0.646378" stroke-linecap="round" stroke-linejoin="round"/>
<path d="M98.0566 105.926C98.081 106.02 98.1115 106.115 98.1451 106.209C98.5565 107.474 99.3988 108.554 100.525 109.261C102.374 110.347 104.907 109.993 106.494 108.547C107.27 107.824 107.83 106.898 108.108 105.874" stroke="#292F36" stroke-width="0.646378" stroke-linecap="round" stroke-linejoin="round"/>
<path d="M125.015 108.962C126.121 115.127 128.188 121.079 131.139 126.602" stroke="#292F36" stroke-width="0.646378" stroke-linecap="round" stroke-linejoin="round"/>
<path d="M77.0331 118.629C80.0539 114.824 82.8672 110.86 85.1008 106.551C85.7596 105.332 86.3257 104.066 86.7943 102.762" stroke="#292F36" stroke-width="0.646378" stroke-linecap="round" stroke-linejoin="round"/>
<path d="M108.959 96.3295C108.959 96.5695 108.941 96.8091 108.907 97.0466C108.74 98.3079 108.136 99.4708 107.201 100.334C106.266 101.197 105.058 101.705 103.787 101.771C102.517 101.837 101.263 101.456 100.244 100.695C99.2242 99.9333 98.5034 98.8391 98.2061 97.6019C98.104 97.1855 98.0528 96.7583 98.0535 96.3295C98.054 95.0353 98.5146 93.7833 99.353 92.7973C100.191 91.8113 101.353 91.1555 102.631 90.947C102.916 90.9014 103.205 90.879 103.494 90.8798C104.21 90.8786 104.92 91.0188 105.581 91.2922C106.243 91.5656 106.845 91.9669 107.351 92.4731C107.858 92.9794 108.26 93.5806 108.533 94.2424C108.807 94.9041 108.948 95.6134 108.947 96.3295H108.959Z" stroke="#292F36" stroke-width="0.646378" stroke-linecap="round" stroke-linejoin="round"/>
<path d="M104.827 91.307C104.827 92.9787 104.162 94.5817 102.98 95.7638C101.798 96.9458 100.195 97.6103 98.5233 97.6111C98.4165 97.6111 98.3097 97.6111 98.2182 97.6111C98.1161 97.1947 98.0649 96.7674 98.0656 96.3387C98.0675 95.5113 98.2573 94.6952 98.6207 93.952C98.9842 93.2087 99.5117 92.5577 100.163 92.0481C100.815 91.5386 101.574 91.1837 102.383 91.0104C103.192 90.8371 104.03 90.8498 104.834 91.0477C104.824 91.127 104.827 91.2185 104.827 91.307Z" fill="#292F36"/>
<path d="M108.959 96.3301C108.959 96.57 108.942 96.8097 108.907 97.0472C108.643 97.0851 108.375 97.1045 108.108 97.1051C106.651 97.1051 105.254 96.5265 104.224 95.4964C103.194 94.4664 102.616 93.0694 102.616 91.6127C102.615 91.3944 102.628 91.1763 102.655 90.9597C102.941 90.9142 103.23 90.8917 103.519 90.8926C104.235 90.8914 104.944 91.0315 105.606 91.3049C106.268 91.5783 106.869 91.9797 107.376 92.4859C107.883 92.9922 108.284 93.5934 108.558 94.2551C108.832 94.9169 108.972 95.6262 108.971 96.3423L108.959 96.3301Z" fill="#292F36"/>
<path d="M97.1596 112.987C97.2408 112.902 97.2977 112.796 97.3244 112.682L97.0894 112.95L97.1596 112.987Z" fill="#FFE66D"/>
<path d="M97.0861 112.806L96.7962 113.056L96.9518 112.947C96.8903 113.093 96.7834 113.216 96.6467 113.297C96.7931 113.288 96.9457 112.965 97.0861 112.806Z" fill="#FFE66D"/>
<path d="M96.7811 112.944C96.7537 112.889 96.6225 113.094 96.595 113.167C96.6591 113.088 96.7537 113.017 96.7811 112.944Z" fill="#FFE66D"/>
<path d="M94.703 110.125C94.6926 110.175 94.672 110.222 94.6423 110.264C94.6939 110.219 94.7303 110.173 94.703 110.125Z" fill="#FFE66D"/>
<path d="M94.6437 110.265L94.6085 110.297H94.6277L94.6437 110.265Z" fill="#FFE66D"/>
<path d="M94.8282 111.898C94.8743 111.855 94.9234 111.815 94.9234 111.87C94.9065 111.867 94.8892 111.869 94.8728 111.873C94.8563 111.878 94.8411 111.886 94.8282 111.898Z" fill="#FFE66D"/>
<path d="M95.4628 112.074C95.768 111.833 95.8015 112.159 96.0975 111.976C95.9327 112.187 95.9083 112.05 95.7924 112.138V112.288L95.5849 112.312C95.5544 112.358 95.5269 112.401 95.4964 112.44C95.5408 112.363 95.5737 112.28 95.594 112.193C95.5696 112.135 95.4689 112.159 95.4628 112.074Z" fill="#FFE66D"/>
<path d="M96.5218 112.99C95.939 113.441 95.701 113.295 95.4355 113.228C95.405 113.28 95.3653 113.328 95.3684 113.35C95.0205 113.429 94.8679 113.182 94.453 113.405L94.4987 113.337C94.4286 113.289 94.2638 113.527 94.1478 113.566C94.2058 113.502 94.2699 113.484 94.3309 113.362C94.3309 113.334 94.1234 113.411 94.1875 113.222C94.0624 113.322 93.9983 113.469 93.8824 113.527L94.0319 113.267C93.9403 113.295 93.98 113.182 93.8244 113.295L93.7725 113.444C93.7725 113.295 93.5589 113.444 93.6474 113.188L93.5864 113.273C93.5864 112.953 93.4338 112.755 93.4216 112.495C93.2721 112.465 93.2294 112.218 92.9883 112.404C93.0585 112.324 93.0707 112.404 93.15 112.254C93.15 112.041 92.8876 112.431 92.8754 112.306C93.3033 111.415 93.8044 110.561 94.3736 109.752C94.4041 109.752 94.4408 109.752 94.514 109.673L94.3706 109.874C94.5506 109.77 94.5872 109.951 94.8313 109.722C94.6605 109.935 94.7673 109.889 94.81 109.905L94.5933 110.143C94.7001 110.082 94.5048 110.356 94.5933 110.311C94.5367 110.348 94.4872 110.396 94.4469 110.451C94.4041 110.625 94.6544 110.274 94.572 110.497L94.7306 110.259C94.5964 110.591 94.694 110.478 94.633 110.729C94.7564 110.565 94.8921 110.411 95.0388 110.268C94.9808 110.375 94.8588 110.539 94.9656 110.494C95.0063 110.441 95.0345 110.379 95.048 110.314C95.2219 110.271 95.4538 110.21 95.4691 110.405C95.3195 110.497 95.3287 110.649 95.228 110.777L95.3958 110.759C95.2696 110.817 95.1473 110.884 95.0297 110.957C94.8802 111.22 94.5933 111.494 94.6055 111.629C94.7245 111.522 94.7245 111.418 94.8374 111.354C94.7886 111.461 94.8374 111.455 94.8588 111.467C94.7764 111.553 94.699 111.644 94.6269 111.739C94.6666 111.757 94.7978 111.61 94.8588 111.531C94.8283 111.583 94.755 111.659 94.7489 111.72C94.7428 111.781 94.9503 111.498 95.0114 111.415C94.9564 111.543 94.7062 111.958 94.9839 111.656L94.7032 111.977C94.7184 111.977 94.7611 111.955 94.8069 111.919C94.7451 111.971 94.6952 112.035 94.6605 112.108C94.8924 111.897 94.5994 112.443 94.9351 112.041L94.6299 112.437C94.6757 112.541 94.8527 112.184 94.9778 112.132C94.9168 112.172 94.868 112.282 94.813 112.306C94.7398 112.425 94.7764 112.48 94.8344 112.48C95.0632 112.48 95.0663 112.736 95.4446 112.501C95.416 112.539 95.3934 112.582 95.3775 112.627C95.5362 112.727 95.9146 112.343 95.9878 112.566C95.8261 112.825 96.0702 112.62 95.9878 112.822C96.4577 112.456 96.3539 112.971 96.5218 112.99Z" fill="#FFE66D"/>
<path d="M96.3174 111.742L96.4486 111.538L96.2808 111.62C96.1923 111.8 96.3082 111.675 96.3174 111.742Z" fill="#FFE66D"/>
<path d="M95.866 112.334L95.9722 112.267L95.8994 112.24L95.866 112.334Z" fill="#FFE66D"/>
<path d="M95.1945 111.382L95.1823 111.418L95.4386 111.345L95.1945 111.382Z" fill="#FFE66D"/>
<path d="M94.8497 109.923C94.9378 109.828 94.9317 109.889 94.9954 109.828L94.8619 109.886L94.8497 109.923Z" fill="#FFE66D"/>
<path d="M110.893 110.085C110.848 109.978 110.774 109.885 110.68 109.817L110.838 110.14L110.893 110.085Z" fill="#FFE66D"/>
<path d="M110.695 110.085L110.82 110.445L110.774 110.259C110.899 110.373 110.979 110.528 111 110.695C111.034 110.549 110.793 110.286 110.695 110.085Z" fill="#FFE66D"/>
<path d="M110.711 110.43C110.653 110.43 110.793 110.631 110.851 110.686C110.799 110.597 110.772 110.481 110.711 110.43Z" fill="#FFE66D"/>
<path d="M107.339 111.479C107.384 111.505 107.424 111.539 107.457 111.579C107.433 111.516 107.4 111.467 107.339 111.479Z" fill="#FFE66D"/>
<path d="M107.464 111.581L107.482 111.621C107.482 111.621 107.482 111.621 107.482 111.599L107.464 111.581Z" fill="#FFE66D"/>
<path d="M110.085 113.274C110.024 113.097 110.115 113.17 110.112 113.076L110.314 113.301C110.314 113.188 110.186 113.082 110.128 112.932C110.28 113.054 110.268 112.85 110.295 112.847C110.355 112.918 110.401 113 110.433 113.088C110.433 112.966 110.259 112.737 110.323 112.685L110.372 112.749C110.292 112.285 110.567 112.233 110.607 111.886C110.585 111.886 110.552 111.824 110.515 111.779C110.655 111.553 110.878 111.391 110.668 110.689C110.594 110.824 110.146 110.552 110.32 111.071C110.161 110.921 110.265 111.22 110.082 110.979C109.847 110.979 110.082 111.464 109.932 111.59C109.852 111.509 109.781 111.419 109.722 111.321L109.761 111.12L109.621 111.071C109.578 110.94 109.713 110.964 109.572 110.735C109.642 111.074 109.328 110.988 109.45 111.364C109.533 111.388 109.542 111.287 109.606 111.269C109.696 111.326 109.775 111.399 109.838 111.486C109.929 111.931 109.691 111.846 109.621 112.059C109.603 112.114 109.539 112.13 109.45 112.02C109.45 111.962 109.359 111.879 109.337 111.809C109.356 111.947 109.642 112.23 109.526 112.239L109.246 111.834C109.523 112.279 109.096 111.834 109.224 112.114C109.087 111.968 109.053 111.849 109.09 111.809C108.989 111.776 109.157 112.011 109.115 112.032L108.901 111.666C109.099 112.02 108.782 111.666 108.675 111.565C108.736 111.648 108.947 111.892 108.883 111.91C108.828 111.882 108.776 111.788 108.736 111.745C108.794 111.831 108.889 111.995 108.864 112.029C108.796 111.931 108.733 111.829 108.675 111.724C108.654 111.748 108.651 111.785 108.562 111.705C108.587 111.834 108.687 111.867 108.751 112.011C108.623 111.98 108.446 111.623 108.245 111.4C108.211 111.264 108.185 111.125 108.169 110.985L108.135 111.156C108.04 111.019 107.894 110.982 107.851 110.811C107.656 110.769 107.644 111.01 107.629 111.19C107.687 111.223 107.738 111.269 107.778 111.324C107.778 111.44 107.665 111.272 107.583 111.187C107.677 111.369 107.784 111.545 107.903 111.712C107.68 111.58 107.76 111.712 107.479 111.483L107.662 111.705C107.473 111.559 107.735 111.904 107.583 111.812C107.54 111.757 107.508 111.695 107.488 111.629C107.488 111.736 107.296 111.474 107.323 111.593L107.159 111.318C107.131 111.355 107.14 111.471 106.988 111.245C107.134 111.55 106.948 111.532 106.988 111.736L106.835 111.541C106.988 111.806 106.686 111.644 106.884 111.95L106.814 111.876L106.954 112.181C106.902 112.181 106.673 111.895 106.738 111.974C106.704 112.087 106.661 112.151 106.53 112.096C106.734 112.358 106.716 112.49 106.683 112.575C106.255 112.673 106.152 113.185 106.161 113.707C106.13 113.753 106.332 114.07 106.396 114.232C106.512 114.232 106.396 114.11 106.457 114.055C106.645 114.166 106.824 114.293 106.991 114.433L106.78 114.247C106.683 114.028 106.921 114.317 106.78 114.067L107.085 114.4C106.945 114.217 107.113 114.32 107.207 114.4L107.012 114.156C107.17 114.241 107.314 114.35 107.439 114.479L107.241 114.272C107.375 114.394 107.357 114.122 107.644 114.522C107.61 114.464 107.519 114.348 107.564 114.351L107.76 114.558C107.741 114.476 107.741 114.403 107.857 114.513C107.91 114.606 107.972 114.694 108.044 114.775C108.211 114.693 107.433 114.055 107.555 113.924L107.677 114.064L107.577 113.89L107.766 114.037C107.394 113.521 107.979 113.927 107.836 113.606C107.836 113.542 108.117 113.793 108.141 113.713L107.955 113.5C108.19 113.68 108.477 113.677 108.941 114.153C108.843 113.948 108.898 114.11 108.754 113.936C108.651 113.631 108.941 113.979 109.09 114.073C109.05 113.921 108.983 114.021 108.873 113.832C109.09 113.936 108.718 113.506 108.935 113.573C109.044 113.692 108.98 113.68 109.035 113.771C108.922 113.491 109.163 113.524 109.234 113.396C109.488 113.414 109.742 113.446 109.993 113.494L109.935 113.408C110.152 113.579 110.067 113.332 110.207 113.378L110.085 113.274Z" fill="#FFE66D"/>
<path d="M109.423 110.436L109.273 110.244L109.295 110.43C109.432 110.573 109.353 110.421 109.423 110.436Z" fill="#FFE66D"/>
<path d="M109.822 111.061L109.795 110.943L109.746 110.997L109.822 111.061Z" fill="#FFE66D"/>
<path d="M108.703 111.382L108.733 111.407L108.745 111.138L108.703 111.382Z" fill="#FFE66D"/>
<path d="M107.195 111.283C107.131 111.171 107.195 111.195 107.149 111.113V111.259L107.195 111.283Z" fill="#FFE66D"/>
<path d="M105.956 111.019C106.216 111.376 105.905 111.056 106.194 111.324C106.185 111.248 106.039 111.141 105.956 111.019Z" fill="#FFE66D"/>
<path d="M106.227 111.628C106.258 111.628 106.227 111.558 106.197 111.501C106.042 111.376 106.188 111.546 106.227 111.628Z" fill="#FFE66D"/>
<path d="M96.5828 121.622C96.66 121.706 96.7548 121.772 96.8604 121.814L96.6041 121.564L96.5828 121.622Z" fill="#FFE66D"/>
<path d="M96.7446 121.585L96.5036 121.295L96.6104 121.448C96.4722 121.374 96.3571 121.263 96.2778 121.128C96.29 121.256 96.5921 121.439 96.7446 121.585Z" fill="#FFE66D"/>
<path d="M96.6071 121.299C96.6559 121.283 96.4637 121.134 96.3935 121.1C96.4598 121.171 96.5312 121.238 96.6071 121.299Z" fill="#FFE66D"/>
<path d="M99.1577 119.965C99.1101 119.946 99.0661 119.919 99.0272 119.886C99.0727 119.94 99.1152 119.98 99.1577 119.965Z" fill="#FFE66D"/>
<path d="M99.0279 119.888L99.0023 119.853V119.872L99.0279 119.888Z" fill="#FFE66D"/>
<path d="M96.2288 118.644C96.3356 118.8 96.2288 118.745 96.2624 118.83L96.0152 118.656C96.0579 118.757 96.1952 118.836 96.2898 118.961C96.1159 118.873 96.1891 119.059 96.1647 119.065C96.0907 119.011 96.0258 118.945 95.9725 118.87C96.0091 118.98 96.2318 119.16 96.1861 119.218L96.125 119.166C96.3386 119.572 96.1098 119.666 96.1922 119.987C96.2135 119.987 96.2562 120.029 96.3081 120.066C96.2593 120.289 96.1189 120.478 96.5553 121.058C96.5553 120.926 97.0465 121.088 96.717 120.661C96.9062 120.768 96.717 120.521 96.952 120.704C97.1564 120.667 96.7902 120.27 96.8818 120.148C96.9784 120.209 97.0693 120.279 97.1533 120.356L97.1839 120.542L97.3242 120.563C97.4036 120.673 97.2815 120.67 97.4798 120.85C97.3029 120.563 97.6049 120.597 97.373 120.279C97.2937 120.279 97.3212 120.362 97.2693 120.386C97.171 120.348 97.0793 120.294 96.9977 120.228C96.7719 119.843 96.9977 119.886 96.9977 119.684C96.9977 119.633 97.0466 119.611 97.1594 119.684C97.1808 119.736 97.2815 119.797 97.3212 119.858C97.2632 119.736 96.9337 119.52 97.016 119.498L97.3883 119.825C97.0099 119.465 97.5195 119.825 97.3212 119.572C97.4859 119.687 97.55 119.788 97.5317 119.831C97.6293 119.849 97.4127 119.66 97.4432 119.636L97.7484 119.941C97.4676 119.651 97.8552 119.941 97.9742 120.008C97.8979 119.938 97.6385 119.745 97.6904 119.724C97.7539 119.76 97.8132 119.803 97.8674 119.852C97.7911 119.785 97.6568 119.648 97.669 119.614C97.7589 119.693 97.8445 119.776 97.9253 119.864C97.9253 119.84 97.9253 119.803 98.0291 119.864C97.968 119.752 97.8735 119.733 97.7728 119.614C97.8948 119.614 98.1511 119.919 98.383 120.099C98.5051 120.27 98.5081 120.362 98.5753 120.456L98.5539 120.304C98.676 120.417 98.8133 120.438 98.9018 120.582C99.0818 120.603 99.0208 120.392 98.9811 120.234C98.9193 120.208 98.8625 120.172 98.8133 120.127C98.7706 120.026 98.9231 120.164 99.0208 120.234C98.8855 120.08 98.7419 119.935 98.5905 119.797C98.8224 119.895 98.7187 119.797 99.0238 119.968L98.8041 119.785C99.0086 119.901 98.6851 119.614 98.8438 119.687C98.8946 119.733 98.9397 119.784 98.978 119.84C98.9353 119.745 99.1886 119.965 99.1306 119.861L99.3503 120.093C99.3656 120.06 99.3228 119.959 99.5181 120.148C99.3076 119.892 99.4724 119.895 99.3778 119.718L99.5639 119.883C99.3595 119.66 99.6646 119.785 99.4113 119.526L99.4937 119.587L99.2893 119.315C99.332 119.315 99.6097 119.556 99.5334 119.489C99.5334 119.388 99.5548 119.33 99.6829 119.376C99.4388 119.15 99.4235 119.035 99.4327 118.958C99.7867 118.861 99.7592 118.409 99.6524 117.945C99.5623 117.781 99.4603 117.624 99.3473 117.475C99.2435 117.475 99.3656 117.585 99.3229 117.634C99.1304 117.536 98.9448 117.425 98.7675 117.301L98.9933 117.466C99.1245 117.661 98.8499 117.405 99.033 117.628L98.6912 117.323C98.856 117.487 98.6912 117.399 98.5814 117.323L98.8072 117.536C98.6451 117.463 98.4933 117.368 98.3556 117.256L98.5753 117.439C98.4288 117.335 98.499 117.579 98.1572 117.225C98.2 117.277 98.3037 117.381 98.264 117.381L98.0443 117.198C98.0749 117.274 98.0901 117.341 97.9619 117.246C97.8954 117.162 97.8208 117.084 97.7392 117.015C97.5988 117.1 98.4288 117.643 98.3495 117.768L98.2091 117.646L98.3373 117.799L98.1328 117.677C98.5844 118.125 97.9619 117.79 98.1633 118.07C98.1816 118.128 97.8582 117.921 97.8582 117.994L98.0779 118.177C97.8246 118.028 97.5622 118.055 97.0282 117.661C97.1655 117.841 97.0771 117.698 97.2479 117.844C97.4158 118.107 97.0679 117.823 96.9092 117.75C96.9794 117.887 97.0191 117.787 97.1625 117.951C96.9428 117.878 97.3852 118.232 97.1625 118.192C97.0313 118.098 97.0954 118.098 97.0221 118.021C97.193 118.269 96.9672 118.263 96.9367 118.388C96.6987 118.354 96.5126 118.452 96.2166 118.388L96.2959 118.458C96.0518 118.333 96.1952 118.546 96.0579 118.525L96.2288 118.644Z" fill="#FFE66D"/>
<path d="M97.6995 121.086L97.8917 121.235L97.8124 121.073C97.6445 120.967 97.7635 121.089 97.6995 121.086Z" fill="#FFE66D"/>
<path d="M97.144 120.594L97.2078 120.694L97.2321 120.639L97.144 120.594Z" fill="#FFE66D"/>
<path d="M98.0076 120.166L97.9741 120.148L98.0473 120.386L98.0076 120.166Z" fill="#FFE66D"/>
<path d="M99.3444 120.13C99.4324 120.224 99.3778 120.206 99.4325 120.273L99.3809 120.148L99.3444 120.13Z" fill="#FFE66D"/>
<path d="M100.489 120.313C100.168 120.008 100.522 120.28 100.199 120.045C100.229 120.121 100.382 120.209 100.489 120.313Z" fill="#FFE66D"/>
<path d="M100.089 119.792C100.067 119.792 100.107 119.852 100.149 119.901C100.319 120.007 100.146 119.849 100.089 119.792Z" fill="#FFE66D"/>
<path d="M112.697 126.116C112.788 126.073 112.831 125.936 112.868 125.811L112.608 126.058L112.697 126.116Z" fill="#FFE66D"/>
<path d="M112.587 125.894L112.261 126.105L112.441 126.019C112.414 126.095 112.37 126.163 112.312 126.219C112.254 126.275 112.185 126.318 112.108 126.343C112.282 126.37 112.435 126.041 112.587 125.894Z" fill="#FFE66D"/>
<path d="M112.221 125.97C112.181 125.903 112.041 126.101 112.016 126.181C112.093 126.104 112.203 126.05 112.221 125.97Z" fill="#FFE66D"/>
<path d="M109.529 122.138C109.515 122.189 109.491 122.237 109.456 122.278C109.52 122.241 109.563 122.202 109.529 122.138Z" fill="#FFE66D"/>
<path d="M109.457 122.291L109.417 122.309H109.438L109.457 122.291Z" fill="#FFE66D"/>
<path d="M108.578 125.455C108.761 125.375 108.721 125.494 108.831 125.488L108.666 125.741C108.797 125.726 108.861 125.58 109.014 125.506C108.947 125.699 109.188 125.68 109.206 125.717C109.136 125.836 109.057 125.836 108.99 125.891C109.133 125.891 109.319 125.665 109.414 125.747L109.362 125.808C109.871 125.689 110.085 126.025 110.512 126.04C110.512 126.013 110.552 125.97 110.585 125.918C110.921 126.068 111.241 126.318 111.91 125.955C111.717 125.894 111.778 125.326 111.299 125.604C111.385 125.397 111.098 125.558 111.275 125.299C111.153 125.021 110.717 125.351 110.512 125.183C110.512 125.116 110.631 125.018 110.717 124.905L110.967 124.936L110.949 124.762C111.077 124.698 111.116 124.86 111.302 124.664C110.955 124.789 110.903 124.408 110.534 124.588C110.534 124.689 110.668 124.689 110.717 124.765C110.701 124.877 110.656 124.982 110.585 125.07C110.119 125.22 110.094 124.924 109.81 124.847C109.74 124.829 109.688 124.753 109.777 124.64C109.841 124.64 109.896 124.521 109.966 124.493C109.816 124.524 109.615 124.872 109.554 124.741L109.899 124.384C109.508 124.737 109.838 124.207 109.56 124.368C109.67 124.197 109.792 124.155 109.865 124.194C109.865 124.075 109.664 124.283 109.618 124.234L109.948 123.962C109.627 124.216 109.908 123.819 109.969 123.691C109.896 123.764 109.707 124.03 109.664 123.95C109.664 123.886 109.759 123.819 109.792 123.77C109.719 123.843 109.566 123.962 109.517 123.932C109.603 123.819 109.688 123.801 109.789 123.697C109.749 123.673 109.704 123.67 109.759 123.563C109.624 123.596 109.627 123.715 109.487 123.798C109.469 123.642 109.81 123.428 109.978 123.187C110.18 123.099 110.308 123.129 110.418 123.078L110.213 123.05C110.332 122.934 110.32 122.76 110.494 122.702C110.473 122.476 110.189 122.473 109.987 122.461C109.973 122.528 109.939 122.59 109.89 122.638C109.762 122.653 109.908 122.507 109.978 122.409C109.805 122.522 109.642 122.651 109.493 122.794C109.56 122.531 109.447 122.626 109.603 122.296L109.414 122.51C109.514 122.287 109.212 122.598 109.264 122.415C109.316 122.368 109.376 122.331 109.441 122.306C109.322 122.324 109.554 122.083 109.426 122.116L109.685 121.921C109.636 121.891 109.508 121.906 109.716 121.726C109.411 121.897 109.38 121.68 109.16 121.726L109.334 121.552C109.081 121.726 109.173 121.378 108.883 121.601L108.947 121.518L108.623 121.671C108.602 121.61 108.874 121.366 108.797 121.424C108.66 121.384 108.575 121.329 108.602 121.18C108.358 121.405 108.199 121.372 108.092 121.329C107.864 120.82 107.247 120.652 106.634 120.575C106.573 120.536 106.24 120.722 106.06 120.771C106.082 120.908 106.21 120.798 106.286 120.874C106.286 120.997 106.063 121.259 105.963 121.46L106.137 121.235C106.375 121.155 106.085 121.396 106.347 121.259L106.027 121.564C106.213 121.421 106.134 121.61 106.076 121.717L106.317 121.515C106.26 121.691 106.166 121.852 106.042 121.988L106.24 121.778C106.13 121.927 106.454 121.949 106.054 122.235C106.112 122.205 106.231 122.113 106.24 122.168L106.045 122.376C106.143 122.376 106.234 122.376 106.134 122.51C106.035 122.557 105.945 122.62 105.868 122.696C106.033 122.925 106.564 122.071 106.756 122.22L106.625 122.351L106.805 122.254L106.689 122.467C107.192 122.074 106.896 122.745 107.235 122.608C107.311 122.608 107.107 122.934 107.217 122.98L107.406 122.766C107.272 123.038 107.382 123.401 106.991 123.938C107.205 123.834 107.025 123.886 107.18 123.724C107.504 123.621 107.205 123.953 107.153 124.136C107.324 124.103 107.171 124.005 107.357 123.886C107.32 124.149 107.69 123.715 107.699 123.984C107.604 124.112 107.586 124.03 107.501 124.094C107.806 123.975 107.858 124.274 108.044 124.368C108.074 124.673 108.269 124.957 108.297 125.329L108.37 125.256C108.273 125.528 108.532 125.424 108.547 125.601L108.578 125.455Z" fill="#FFE66D"/>
<path d="M111.547 124.475L111.69 124.28L111.492 124.326C111.4 124.506 111.528 124.396 111.547 124.475Z" fill="#FFE66D"/>
<path d="M111.04 125.018L111.161 124.972L111.073 124.92L111.04 125.018Z" fill="#FFE66D"/>
<path d="M110.155 123.724L110.143 123.764L110.451 123.761L110.155 123.724Z" fill="#FFE66D"/>
<path d="M109.703 121.961C109.81 121.885 109.801 121.961 109.879 121.906L109.719 121.924L109.703 121.961Z" fill="#FFE66D"/>
<path d="M109.649 120.548C109.316 120.838 109.594 120.49 109.343 120.814C109.453 120.804 109.533 120.643 109.649 120.548Z" fill="#FFE66D"/>
<path d="M109.035 120.847C109.051 120.883 109.111 120.847 109.169 120.816C109.272 120.643 109.114 120.804 109.035 120.847Z" fill="#FFE66D"/>
<path d="M116.06 119.956C116.218 120.164 116.386 120.377 116.307 120.405C116.241 120.322 116.183 120.233 116.133 120.139L116.108 120.115C116.026 120.03 116.029 120.094 116.047 120.164L115.864 119.944C115.828 119.944 115.913 120.054 115.944 120.112C115.672 119.706 115.703 119.95 115.581 119.822L115.761 120.042C115.648 119.903 115.518 119.78 115.373 119.676L115.559 119.932C115.471 119.85 115.321 119.727 115.455 119.932L115.172 119.578C115.312 119.828 115.089 119.523 115.19 119.737L115.379 119.944C115.229 119.788 115.069 119.643 114.9 119.508C114.854 119.544 114.955 119.676 114.857 119.651C114.768 119.487 114.691 119.315 114.629 119.139C114.589 118.678 114.629 118.245 114.97 118.223C114.992 118.159 114.995 118.043 114.793 117.775C114.909 117.848 114.937 117.799 114.952 117.704C114.992 117.753 115.126 117.918 115.156 117.921L115.001 117.616L115.071 117.692C114.867 117.387 115.138 117.579 114.976 117.323L115.129 117.518C115.065 117.329 115.217 117.372 115.056 117.082C115.166 117.235 115.187 117.231 115.193 117.207C115.349 117.671 115.498 118.141 115.642 118.608C115.73 118.885 115.812 119.163 115.898 119.438C115.898 119.453 115.898 119.489 115.938 119.566C115.962 119.609 115.99 119.651 116.02 119.691L115.962 119.639L115.846 119.532L115.944 119.703L115.828 119.557C115.791 119.605 115.919 119.776 116.06 119.956Z" fill="#FFE66D"/>
<path d="M114.186 116.725C114.445 117.082 114.149 116.749 114.424 117.03C114.403 116.963 114.272 116.847 114.186 116.725Z" fill="#FFE66D"/>
<path d="M114.488 117.304C114.512 117.304 114.488 117.246 114.448 117.188C114.305 117.052 114.445 117.228 114.488 117.304Z" fill="#FFE66D"/>
<path d="M96.9642 126.812C96.6987 127.423 96.3295 128.008 95.7437 128.137C95.6826 128.214 95.6493 128.311 95.6493 128.41C95.6493 128.509 95.6826 128.605 95.7437 128.683C95.6003 128.622 95.5148 128.701 95.4385 128.832C95.405 128.78 95.2921 128.597 95.2402 128.603L95.2921 128.96L95.2311 128.884C95.3134 129.092 95.231 129.11 95.1578 129.162C95.1131 129.165 95.0683 129.165 95.0236 129.162V129.137C95.025 129.144 95.025 129.152 95.0236 129.159C93.664 129.086 92.377 128.522 91.4016 127.572C91.4565 127.517 91.5084 127.468 91.6457 127.572L91.5938 127.481C91.9814 127.542 92.3384 127.41 92.6557 127.447C92.8144 127.282 93.1409 127.288 93.1073 126.962C93.15 127.062 93.0585 127.062 93.1592 127.188C93.4369 127.236 93.1104 126.77 93.3697 126.864C93.3057 126.651 93.1561 126.782 93.1775 126.602C93.3453 126.696 93.5955 127.072 93.5894 126.724C93.4735 126.529 93.4704 126.724 93.4308 126.483C93.8579 126.995 94.2638 126.962 94.4987 127.157L94.3431 126.916C94.4255 126.818 94.694 127.093 94.7184 127.017C94.6818 126.644 95.2799 127.087 95.0236 126.498L95.2036 126.66L95.1609 126.458L95.2555 126.617C95.4721 126.455 94.755 125.741 95.0388 125.625C95.0928 125.72 95.1299 125.823 95.1487 125.93C95.2524 126.059 95.2921 125.967 95.3134 125.869L95.4691 126.11C95.5301 126.11 95.4691 125.973 95.4691 125.909C95.646 126.37 95.7742 126.049 95.884 126.19L95.7284 125.949C95.833 126.102 95.972 126.228 96.1342 126.318L95.9969 126.034C96.0915 126.117 96.2655 126.236 96.1709 126.034L96.4028 126.425C96.3387 126.12 96.5004 126.471 96.4913 126.211L96.3112 125.991C96.4882 126.135 96.6957 126.409 96.8177 126.434C96.9215 126.373 96.8452 126.223 96.9947 126.229C96.9337 126.388 97.0283 126.76 96.9642 126.812Z" fill="#FFE66D"/>
<path d="M92.012 120.115C92.069 120.016 92.1044 119.905 92.1157 119.792L91.9509 120.097L92.012 120.115Z" fill="#FFE66D"/>
<path d="M91.9296 119.968L91.7221 120.273L91.8381 120.127C91.808 120.282 91.7363 120.425 91.6306 120.542C91.7465 120.499 91.8319 120.154 91.9296 119.968Z" fill="#FFE66D"/>
<path d="M91.6915 120.185C91.6641 120.142 91.5817 120.371 91.5664 120.447C91.6169 120.364 91.6588 120.276 91.6915 120.185Z" fill="#FFE66D"/>
<path d="M90.6324 119.962L90.5561 120.154C90.5903 120.056 90.6099 119.953 90.6141 119.849C90.5745 119.809 90.4951 119.864 90.4768 119.785C90.6965 119.462 90.7819 119.758 90.9833 119.498C90.8796 119.742 90.8399 119.623 90.7636 119.736L90.7911 119.877L90.6324 119.962Z" fill="#FFE66D"/>
<path d="M91.472 120.304C91.0539 120.896 90.8403 120.829 90.6176 120.856C90.5983 120.9 90.5859 120.946 90.581 120.993C90.343 121.155 90.1904 121.033 89.9554 121.237C90.0287 120.932 90.105 120.627 90.1843 120.322C90.2758 120.343 90.3552 120.383 90.5505 120.151C90.5307 120.192 90.5183 120.237 90.5138 120.282C90.6573 120.325 90.9136 119.855 91.0112 120.035C90.9136 120.322 91.0875 120.057 91.0478 120.27C91.3621 119.828 91.356 120.334 91.472 120.304Z" fill="#FFE66D"/>
<path d="M91.1394 119.208L91.2157 118.98L91.0875 119.108C91.0448 119.3 91.118 119.147 91.1394 119.208Z" fill="#FFE66D"/>
<path d="M90.8555 119.895L90.9314 119.804L90.8676 119.798L90.8555 119.895Z" fill="#FFE66D"/>
<path d="M83.6709 37.3937C83.6709 35.8832 83.9712 34.3877 84.5544 32.9944C85.1376 31.601 85.9921 30.3375 87.0681 29.2774C88.1441 28.2173 89.4201 27.3817 90.822 26.8193C92.2239 26.2568 93.7236 25.9788 95.234 26.0013C101.384 26.0901 106.391 31.1188 106.457 37.2694C106.489 39.796 105.676 42.2608 104.147 44.2725C102.062 46.9932 100.804 50.2562 100.523 53.6723C100.489 54.1072 100.472 54.5449 100.473 54.9852V57.6798H89.6549V55.1438C89.6549 54.6516 89.6351 54.1611 89.5954 53.6723C89.339 50.2862 88.1051 47.0475 86.0433 44.3493C84.5024 42.3583 83.6678 39.9112 83.6709 37.3937Z" fill="#FFE66D"/>
<path d="M97.7228 43.5111C97.9103 43.5111 98.0901 43.5856 98.2227 43.7182C98.3553 43.8508 98.4298 44.0306 98.4298 44.2181V57.6799C98.4298 57.8686 98.3548 58.0496 98.2214 58.183C98.0879 58.3164 97.907 58.3914 97.7182 58.3914C97.5295 58.3914 97.3486 58.3164 97.2151 58.183C97.0817 58.0496 97.0067 57.8686 97.0067 57.6799V44.2221C97.0062 44.1282 97.0244 44.0351 97.0602 43.9482C97.0961 43.8614 97.1489 43.7825 97.2156 43.7164C97.2822 43.6502 97.3614 43.5979 97.4485 43.5627C97.5356 43.5274 97.6288 43.5099 97.7228 43.5111Z" fill="#FE5E41"/>
<path d="M92.4424 43.5111C92.6299 43.5111 92.8097 43.5856 92.9423 43.7182C93.0749 43.8508 93.1494 44.0306 93.1494 44.2181V57.6799C93.1494 57.8686 93.0744 58.0496 92.941 58.183C92.8075 58.3164 92.6266 58.3914 92.4378 58.3914C92.2491 58.3914 92.0682 58.3164 91.9347 58.183C91.8013 58.0496 91.7263 57.8686 91.7263 57.6799V44.2221C91.7258 44.1282 91.744 44.0351 91.7798 43.9482C91.8157 43.8614 91.8685 43.7825 91.9352 43.7164C92.0018 43.6502 92.081 43.5979 92.1681 43.5627C92.2552 43.5274 92.3484 43.5099 92.4424 43.5111Z" fill="#FE5E41"/>
<path d="M89.3934 55.0606H100.771C100.898 55.06 101.024 55.0887 101.138 55.1444C101.252 55.2001 101.353 55.2814 101.431 55.3819C101.509 55.4824 101.563 55.5995 101.588 55.7241C101.614 55.8488 101.611 55.9776 101.579 56.1008L101.294 57.1916L99.6163 63.6705L99.2264 65.1784C99.1804 65.3574 99.0759 65.5158 98.9295 65.6287C98.7831 65.7416 98.6033 65.8024 98.4185 65.8015H91.7426C91.5579 65.8021 91.3782 65.7411 91.2319 65.6283C91.0856 65.5155 90.981 65.3572 90.9346 65.1784L90.5438 63.6705L88.8713 57.1916L88.5885 56.1038C88.5562 55.9807 88.5526 55.8519 88.5779 55.7271C88.6033 55.6024 88.6569 55.4852 88.7346 55.3844C88.8123 55.2836 88.9122 55.202 89.0264 55.1459C89.1406 55.0898 89.2662 55.0606 89.3934 55.0606Z" fill="#292F36"/>
<path d="M88.8713 57.1918H101.294L99.6163 63.6707H90.5478L88.8713 57.1918Z" fill="#FE5E41"/>
<path d="M88.7701 58.5814H101.395C101.636 58.5814 101.867 58.6771 102.037 58.8476C102.208 59.0181 102.304 59.2493 102.304 59.4903V61.379C102.304 61.4983 102.28 61.6165 102.234 61.7268C102.189 61.8371 102.122 61.9373 102.037 62.0217C101.953 62.1061 101.853 62.1731 101.743 62.2187C101.632 62.2644 101.514 62.2879 101.395 62.2879H88.7701C88.529 62.2879 88.2978 62.1922 88.1274 62.0217C87.9569 61.8512 87.8611 61.62 87.8611 61.379V59.4873C87.8619 59.2467 87.9581 59.0163 88.1284 58.8465C88.2988 58.6767 88.5296 58.5814 88.7701 58.5814Z" fill="#292F36"/>
<path d="M97.7219 29.517C97.7902 29.5165 97.8583 29.526 97.9239 29.5453C102.506 30.8582 103.358 35.4697 103.393 35.6646C103.426 35.8505 103.383 36.0418 103.275 36.1964C103.166 36.3509 103.001 36.4561 102.815 36.4888C102.629 36.5215 102.438 36.4789 102.283 36.3706C102.129 36.2623 102.024 36.097 101.991 35.9111C101.962 35.7454 101.242 31.9722 97.532 30.9128C97.3587 30.874 97.2063 30.7715 97.1051 30.6256C97.0039 30.4796 96.9614 30.3009 96.9859 30.125C97.0105 29.9491 97.1004 29.7889 97.2377 29.6762C97.3749 29.5636 97.5496 29.5067 97.7269 29.517H97.7219Z" fill="#FCFCFC"/>
</g>
<defs>
<clipPath id="clip0_3480_42989">
<rect width="193" height="193" rx="96.5" fill="white"/>
</clipPath>
</defs>
</svg>
