<svg width="43" height="46" viewBox="0 0 43 46" fill="none" xmlns="http://www.w3.org/2000/svg">
<path d="M17.2467 4.62834C18.0159 4.62834 18.6394 3.99879 18.6394 3.22221C18.6394 2.44563 18.0159 1.81609 17.2467 1.81609C16.4776 1.81609 15.8541 2.44563 15.8541 3.22221C15.8541 3.99879 16.4776 4.62834 17.2467 4.62834Z" fill="#FFE888"/>
<path d="M31.3496 6.03445C32.1187 6.03445 32.7422 5.40491 32.7422 4.62832C32.7422 3.85174 32.1187 3.2222 31.3496 3.2222C30.5804 3.2222 29.9569 3.85174 29.9569 4.62832C29.9569 5.40491 30.5804 6.03445 31.3496 6.03445Z" fill="#FFE888"/>
<path d="M34.1351 30.6444C34.9042 30.6444 35.5278 30.0148 35.5278 29.2383C35.5278 28.4617 34.9042 27.8321 34.1351 27.8321C33.3659 27.8321 32.7424 28.4617 32.7424 29.2383C32.7424 30.0148 33.3659 30.6444 34.1351 30.6444Z" fill="#FFE888"/>
<path d="M7.0541 30.2198C7.82324 30.2198 8.44676 29.5903 8.44676 28.8137C8.44676 28.0371 7.82324 27.4075 7.0541 27.4075C6.28495 27.4075 5.66144 28.0371 5.66144 28.8137C5.66144 29.5903 6.28495 30.2198 7.0541 30.2198Z" fill="#FFE888"/>
<path d="M37.7923 19.9586C39.0427 19.9586 40.0563 18.9352 40.0563 17.6728C40.0563 16.4103 39.0427 15.3869 37.7923 15.3869C36.542 15.3869 35.5284 16.4103 35.5284 17.6728C35.5284 18.9352 36.542 19.9586 37.7923 19.9586Z" fill="#FFE888"/>
<path d="M4.88748 16.1809C6.13783 16.1809 7.15143 15.1575 7.15143 13.895C7.15143 12.6326 6.13783 11.6092 4.88748 11.6092C3.63714 11.6092 2.62354 12.6326 2.62354 13.895C2.62354 15.1575 3.63714 16.1809 4.88748 16.1809Z" fill="#FFE888"/>
<path d="M21.3662 8.9462C19.6544 8.92836 17.975 9.41746 16.5356 10.353C15.0963 11.2886 13.96 12.6296 13.2674 14.2102C12.5748 15.7908 12.3563 17.5417 12.6387 19.2464C12.9212 20.9511 13.6923 22.5348 14.8567 23.8018C16.3799 25.4178 17.2395 27.557 17.2619 29.7878L17.3084 30.5339C19.8277 31.6277 22.674 31.6672 25.2222 30.6436L25.29 29.7878C25.2871 27.5893 26.1216 25.4738 27.6207 23.8793C28.7961 22.6317 29.585 21.0647 29.8907 19.3707C30.1963 17.6767 30.0054 15.9295 29.3412 14.3435C28.6771 12.7576 27.5687 11.402 26.1522 10.4431C24.7356 9.48433 23.0726 8.96405 21.3673 8.9462H21.3662Z" fill="#FFC639"/>
<path d="M25.2883 29.8591V29.8629L25.2895 29.8623L25.2883 29.8591Z" fill="#584360"/>
<path d="M30.0111 39.0012C28.9327 38.2696 26.789 39.2668 25.4813 39.4227C25.6898 39.3922 25.8826 39.2935 26.0303 39.1417C26.1779 38.99 26.2721 38.7935 26.2985 38.5825C26.325 38.3714 26.2821 38.1575 26.1765 37.9734C26.0709 37.7893 25.9085 37.6453 25.714 37.5634C24.4975 37.0929 23.2424 36.7311 21.9632 36.4823C19.9486 36.0734 17.8562 36.3633 16.0252 37.3049C15.0165 37.787 12.1307 39.7724 11.4166 40.8977C11.3161 41.0415 11.2726 41.2179 11.2944 41.3924C11.3665 42.0489 13.3201 43.943 13.9195 44.1393C14.0289 44.1805 14.1466 44.1938 14.2623 44.1781C14.378 44.1624 14.4881 44.1181 14.5828 44.0492C14.944 43.8142 15.7381 43.0277 16.538 42.7437C18.0195 42.2177 20.4766 42.6724 21.6726 42.6434C23.4323 42.6007 29.3094 41.0799 30.2171 40.2522C30.2964 40.1611 30.3547 40.0532 30.3877 39.9365C30.4207 39.8198 30.4276 39.6971 30.4079 39.5774C30.3881 39.4577 30.3423 39.3439 30.2737 39.2442C30.2051 39.1446 30.1154 39.0616 30.0111 39.0012Z" fill="#FF977B"/>
<path d="M21.274 30.9244C21.1712 30.9244 21.0725 30.8832 20.9997 30.8097C20.927 30.7363 20.8861 30.6366 20.8861 30.5327V26.3907C20.8861 26.2869 20.927 26.1872 20.9997 26.1138C21.0725 26.0403 21.1712 25.9991 21.274 25.9991C21.3769 25.9991 21.4756 26.0403 21.5483 26.1138C21.6211 26.1872 21.662 26.2869 21.662 26.3907V30.5327C21.662 30.6366 21.6211 30.7363 21.5483 30.8097C21.4756 30.8832 21.3769 30.9244 21.274 30.9244Z" fill="white"/>
<path d="M21.2733 24.4472C21.5463 24.4472 21.7676 24.2238 21.7676 23.9482C21.7676 23.6727 21.5463 23.4493 21.2733 23.4493C21.0004 23.4493 20.7791 23.6727 20.7791 23.9482C20.7791 24.2238 21.0004 24.4472 21.2733 24.4472Z" fill="white"/>
<path d="M21.289 22.2393H21.244C21.0516 22.2391 20.8638 22.18 20.7053 22.07C20.5467 21.96 20.4248 21.8041 20.3556 21.6228C19.856 20.3327 19.3885 20.0134 18.6488 19.8493C18.5989 19.8383 18.5518 19.8175 18.5099 19.788C18.4681 19.7586 18.4324 19.7211 18.4049 19.6777C18.3774 19.6344 18.3586 19.5859 18.3496 19.5352C18.3407 19.4845 18.3417 19.4326 18.3526 19.3823C18.3635 19.3319 18.3841 19.2843 18.4133 19.2421C18.4425 19.1998 18.4796 19.1638 18.5225 19.136C18.5655 19.1082 18.6135 19.0893 18.6637 19.0802C18.7139 19.0712 18.7654 19.0722 18.8152 19.0832C19.925 19.3288 20.5388 19.9394 21.0799 21.3365C21.0936 21.3744 21.1195 21.4065 21.1534 21.4278C21.1872 21.4491 21.2272 21.4583 21.2669 21.454C21.3088 21.4595 21.3514 21.451 21.3881 21.4298C21.4248 21.4085 21.4536 21.3758 21.4702 21.3365C22.0133 19.939 22.6258 19.3288 23.7353 19.0832C23.8346 19.0639 23.9375 19.0845 24.022 19.1407C24.1065 19.1969 24.1659 19.2842 24.1876 19.384C24.2092 19.4838 24.1914 19.5881 24.1379 19.6748C24.0845 19.7616 23.9995 19.8237 23.9013 19.8482C23.1604 20.0123 22.6929 20.3315 22.1944 21.6217C22.1238 21.8055 21.9992 21.9631 21.8374 22.0735C21.6756 22.1839 21.4843 22.2418 21.289 22.2393Z" fill="white"/>
<path d="M21.2726 30.5335C19.908 30.5291 18.5531 30.302 17.2602 29.861H17.2571C17.2386 30.405 17.3287 30.9472 17.5221 31.4552C17.7155 31.9633 18.0081 32.4269 18.3827 32.8184C18.7572 33.2098 19.2059 33.5212 19.7022 33.7339C20.1984 33.9466 20.7319 34.0563 21.271 34.0565C21.8101 34.0566 22.3437 33.9472 22.84 33.7348C23.3363 33.5224 23.7852 33.2113 24.16 32.82C24.5347 32.4288 24.8277 31.9654 25.0213 31.4574C25.215 30.9495 25.3054 30.4074 25.2872 29.8634C23.9934 30.3033 22.6378 30.5295 21.2726 30.5335Z" fill="#4E3B56"/>
<path d="M21.3605 39.8884C21.2746 39.8885 21.1911 39.8598 21.1231 39.8068C21.0551 39.7539 21.0064 39.6796 20.9847 39.5957C20.963 39.5117 20.9695 39.4229 21.0032 39.3431C21.0369 39.2633 21.0958 39.1971 21.1708 39.1548C22.0429 38.664 23.0771 38.8144 23.9887 38.9468C24.4597 39.0426 24.9415 39.0724 25.4206 39.0353C25.5223 39.0194 25.6261 39.045 25.7091 39.1063C25.7922 39.1677 25.8477 39.2599 25.8634 39.3626C25.8791 39.4653 25.8538 39.57 25.7931 39.6539C25.7323 39.7377 25.641 39.7938 25.5393 39.8097C24.9843 39.8614 24.4248 39.8318 23.8782 39.7219C23.0496 39.6017 22.1919 39.4771 21.5506 39.8394C21.4925 39.872 21.427 39.8889 21.3605 39.8884Z" fill="#ED4850"/>
</svg>
