<svg width="62" height="63" viewBox="0 0 62 63" fill="none" xmlns="http://www.w3.org/2000/svg">
<rect x="11" width="40" height="40" rx="20" fill="black"/>
<path d="M31.0033 10.163C34.2098 10.163 34.5862 10.1773 35.8535 10.2345C37.0255 10.2869 37.6592 10.4823 38.0832 10.649C38.6454 10.8682 39.0457 11.1255 39.4649 11.5447C39.8842 11.964 40.1462 12.3642 40.3606 12.9264C40.5226 13.3504 40.7227 13.9841 40.7751 15.1562C40.8323 16.4235 40.8466 16.7999 40.8466 20.0064C40.8466 23.2128 40.8323 23.5892 40.7751 24.8565C40.7227 26.0286 40.5274 26.6623 40.3606 27.0863C40.1415 27.6485 39.8842 28.0487 39.4649 28.468C39.0457 28.8872 38.6454 29.1493 38.0832 29.3637C37.6592 29.5257 37.0255 29.7258 35.8535 29.7782C34.5862 29.8354 34.2098 29.8497 31.0033 29.8497C27.7968 29.8497 27.4205 29.8354 26.1531 29.7782C24.9811 29.7258 24.3474 29.5304 23.9234 29.3637C23.3612 29.1445 22.9609 28.8872 22.5417 28.468C22.1224 28.0487 21.8604 27.6485 21.646 27.0863C21.484 26.6623 21.2839 26.0286 21.2315 24.8565C21.1743 23.5892 21.16 23.2128 21.16 20.0064C21.16 16.7999 21.1743 16.4235 21.2315 15.1562C21.2839 13.9841 21.4792 13.3504 21.646 12.9264C21.8651 12.3642 22.1224 11.964 22.5417 11.5447C22.9609 11.1255 23.3612 10.8634 23.9234 10.649C24.3474 10.487 24.9811 10.2869 26.1531 10.2345C27.4205 10.1726 27.8016 10.163 31.0033 10.163ZM31.0033 8C27.7444 8 27.3347 8.01429 26.0531 8.07147C24.7762 8.12864 23.9043 8.33351 23.142 8.6289C22.3511 8.93383 21.6841 9.34833 21.0171 10.0154C20.35 10.6824 19.9403 11.3542 19.6306 12.1403C19.3352 12.9026 19.1303 13.7745 19.0732 15.0561C19.016 16.333 19.0017 16.7427 19.0017 20.0016C19.0017 23.2605 19.016 23.6702 19.0732 24.9518C19.1303 26.2287 19.3352 27.1006 19.6306 27.8677C19.9355 28.6585 20.35 29.3256 21.0171 29.9926C21.6841 30.6596 22.3559 31.0693 23.142 31.379C23.9043 31.6744 24.7762 31.8793 26.0578 31.9365C27.3395 31.9936 27.7444 32.0079 31.0081 32.0079C34.2717 32.0079 34.6767 31.9936 35.9583 31.9365C37.2352 31.8793 38.1071 31.6744 38.8741 31.379C39.665 31.0741 40.3321 30.6596 40.9991 29.9926C41.6661 29.3256 42.0758 28.6538 42.3855 27.8677C42.6809 27.1053 42.8858 26.2335 42.943 24.9518C43.0001 23.6702 43.0144 23.2652 43.0144 20.0016C43.0144 16.738 43.0001 16.333 42.943 15.0513C42.8858 13.7745 42.6809 12.9026 42.3855 12.1355C42.0806 11.3446 41.6661 10.6776 40.9991 10.0106C40.3321 9.34357 39.6603 8.93383 38.8741 8.62414C38.1118 8.32875 37.2399 8.12388 35.9583 8.0667C34.6719 8.01429 34.2622 8 31.0033 8Z" fill="white"/>
<path d="M31.0031 13.8412C27.6013 13.8412 24.8379 16.5998 24.8379 20.0064C24.8379 23.4129 27.5965 26.1715 31.0031 26.1715C34.4096 26.1715 37.1682 23.4129 37.1682 20.0064C37.1682 16.5998 34.4096 13.8412 31.0031 13.8412ZM31.0031 24.0037C28.7924 24.0037 27.0009 22.2123 27.0009 20.0016C27.0009 17.7909 28.7924 15.9995 31.0031 15.9995C33.2137 15.9995 35.0052 17.7909 35.0052 20.0016C35.0052 22.2123 33.2137 24.0037 31.0031 24.0037Z" fill="white"/>
<path d="M37.4113 15.0323C38.2059 15.0323 38.8501 14.3881 38.8501 13.5934C38.8501 12.7987 38.2059 12.1545 37.4113 12.1545C36.6166 12.1545 35.9724 12.7987 35.9724 13.5934C35.9724 14.3881 36.6166 15.0323 37.4113 15.0323Z" fill="white"/>
<path opacity="0.6" d="M0.864 60V58.8H2.22V52.8H0.864V51.6H4.872V52.8H3.516V58.8H4.872V60H0.864ZM6.59447 60V53.7H7.83047V54.996L7.61447 55.14C7.69447 54.86 7.85047 54.604 8.08247 54.372C8.31447 54.132 8.59047 53.94 8.91047 53.796C9.23047 53.644 9.55847 53.568 9.89447 53.568C10.3745 53.568 10.7745 53.664 11.0945 53.856C11.4145 54.04 11.6545 54.324 11.8145 54.708C11.9745 55.092 12.0545 55.576 12.0545 56.16V60H10.8185V56.244C10.8185 55.884 10.7705 55.588 10.6745 55.356C10.5785 55.116 10.4305 54.944 10.2305 54.84C10.0305 54.728 9.78247 54.68 9.48647 54.696C9.24647 54.696 9.02647 54.736 8.82647 54.816C8.62647 54.888 8.45047 54.992 8.29847 55.128C8.15447 55.264 8.03847 55.424 7.95047 55.608C7.87047 55.784 7.83047 55.976 7.83047 56.184V60H7.21847C7.11447 60 7.01047 60 6.90647 60C6.80247 60 6.69847 60 6.59447 60ZM15.8312 60.12C15.3032 60.12 14.8272 60.028 14.4032 59.844C13.9792 59.66 13.6272 59.388 13.3472 59.028L14.1872 58.308C14.4272 58.588 14.6872 58.792 14.9672 58.92C15.2552 59.04 15.5792 59.1 15.9392 59.1C16.0832 59.1 16.2152 59.084 16.3352 59.052C16.4632 59.012 16.5712 58.956 16.6592 58.884C16.7552 58.812 16.8272 58.728 16.8752 58.632C16.9232 58.528 16.9472 58.416 16.9472 58.296C16.9472 58.088 16.8712 57.92 16.7192 57.792C16.6392 57.736 16.5112 57.676 16.3352 57.612C16.1672 57.54 15.9472 57.468 15.6752 57.396C15.2112 57.276 14.8312 57.14 14.5352 56.988C14.2392 56.836 14.0112 56.664 13.8512 56.472C13.7312 56.32 13.6432 56.156 13.5872 55.98C13.5312 55.796 13.5032 55.596 13.5032 55.38C13.5032 55.116 13.5592 54.876 13.6712 54.66C13.7912 54.436 13.9512 54.244 14.1512 54.084C14.3592 53.916 14.5992 53.788 14.8712 53.7C15.1512 53.612 15.4472 53.568 15.7592 53.568C16.0552 53.568 16.3472 53.608 16.6352 53.688C16.9312 53.768 17.2032 53.884 17.4512 54.036C17.6992 54.188 17.9072 54.368 18.0752 54.576L17.3672 55.356C17.2152 55.204 17.0472 55.072 16.8632 54.96C16.6872 54.84 16.5072 54.748 16.3232 54.684C16.1392 54.62 15.9712 54.588 15.8192 54.588C15.6512 54.588 15.4992 54.604 15.3632 54.636C15.2272 54.668 15.1112 54.716 15.0152 54.78C14.9272 54.844 14.8592 54.924 14.8112 55.02C14.7632 55.116 14.7392 55.224 14.7392 55.344C14.7472 55.448 14.7712 55.548 14.8112 55.644C14.8592 55.732 14.9232 55.808 15.0032 55.872C15.0912 55.936 15.2232 56.004 15.3992 56.076C15.5752 56.148 15.7992 56.216 16.0712 56.28C16.4712 56.384 16.7992 56.5 17.0552 56.628C17.3192 56.748 17.5272 56.888 17.6792 57.048C17.8392 57.2 17.9512 57.376 18.0152 57.576C18.0792 57.776 18.1112 58 18.1112 58.248C18.1112 58.608 18.0072 58.932 17.7992 59.22C17.5992 59.5 17.3272 59.72 16.9832 59.88C16.6392 60.04 16.2552 60.12 15.8312 60.12ZM20.2534 60V52.092H21.4894V60H20.2534ZM18.9454 54.9V53.7H22.9534V54.9H18.9454ZM26.4443 60.12C25.9243 60.12 25.4483 59.976 25.0163 59.688C24.5923 59.4 24.2523 59.008 23.9963 58.512C23.7403 58.016 23.6123 57.456 23.6123 56.832C23.6123 56.2 23.7403 55.64 23.9963 55.152C24.2603 54.656 24.6123 54.268 25.0523 53.988C25.5003 53.708 26.0003 53.568 26.5523 53.568C26.8803 53.568 27.1803 53.616 27.4523 53.712C27.7243 53.808 27.9603 53.944 28.1603 54.12C28.3683 54.288 28.5363 54.484 28.6643 54.708C28.8003 54.932 28.8843 55.172 28.9163 55.428L28.6403 55.332V53.7H29.8883V60H28.6403V58.5L28.9283 58.416C28.8803 58.632 28.7803 58.844 28.6283 59.052C28.4843 59.252 28.2963 59.432 28.0643 59.592C27.8403 59.752 27.5883 59.88 27.3083 59.976C27.0363 60.072 26.7483 60.12 26.4443 60.12ZM26.7683 58.98C27.1443 58.98 27.4763 58.888 27.7643 58.704C28.0523 58.52 28.2763 58.268 28.4363 57.948C28.6043 57.62 28.6883 57.248 28.6883 56.832C28.6883 56.424 28.6043 56.06 28.4363 55.74C28.2763 55.42 28.0523 55.168 27.7643 54.984C27.4763 54.8 27.1443 54.708 26.7683 54.708C26.4003 54.708 26.0723 54.8 25.7843 54.984C25.5043 55.168 25.2803 55.42 25.1123 55.74C24.9523 56.06 24.8723 56.424 24.8723 56.832C24.8723 57.248 24.9523 57.62 25.1123 57.948C25.2803 58.268 25.5043 58.52 25.7843 58.704C26.0723 58.888 26.4003 58.98 26.7683 58.98ZM34.434 62.76C33.986 62.76 33.538 62.688 33.09 62.544C32.65 62.408 32.294 62.228 32.022 62.004L32.478 61.044C32.638 61.164 32.826 61.268 33.042 61.356C33.258 61.452 33.486 61.524 33.726 61.572C33.966 61.628 34.202 61.656 34.434 61.656C34.874 61.656 35.242 61.584 35.538 61.44C35.834 61.296 36.058 61.084 36.21 60.804C36.362 60.524 36.438 60.176 36.438 59.76V58.548L36.57 58.632C36.53 58.88 36.398 59.12 36.174 59.352C35.958 59.576 35.686 59.76 35.358 59.904C35.03 60.048 34.694 60.12 34.35 60.12C33.75 60.12 33.214 59.98 32.742 59.7C32.278 59.412 31.91 59.024 31.638 58.536C31.366 58.04 31.23 57.476 31.23 56.844C31.23 56.212 31.362 55.652 31.626 55.164C31.898 54.668 32.266 54.28 32.73 54C33.202 53.712 33.73 53.568 34.314 53.568C34.554 53.568 34.786 53.6 35.01 53.664C35.234 53.72 35.442 53.804 35.634 53.916C35.826 54.02 35.998 54.136 36.15 54.264C36.302 54.392 36.426 54.528 36.522 54.672C36.618 54.816 36.678 54.952 36.702 55.08L36.438 55.176V53.7H37.674V59.616C37.674 60.12 37.598 60.564 37.446 60.948C37.302 61.34 37.09 61.668 36.81 61.932C36.53 62.204 36.19 62.408 35.79 62.544C35.39 62.688 34.938 62.76 34.434 62.76ZM34.482 58.98C34.874 58.98 35.222 58.888 35.526 58.704C35.83 58.52 36.066 58.268 36.234 57.948C36.402 57.628 36.486 57.26 36.486 56.844C36.486 56.428 36.398 56.06 36.222 55.74C36.054 55.412 35.818 55.156 35.514 54.972C35.218 54.788 34.874 54.696 34.482 54.696C34.098 54.696 33.754 54.792 33.45 54.984C33.154 55.168 32.918 55.424 32.742 55.752C32.574 56.072 32.49 56.436 32.49 56.844C32.49 57.252 32.574 57.62 32.742 57.948C32.918 58.268 33.154 58.52 33.45 58.704C33.754 58.888 34.098 58.98 34.482 58.98ZM39.407 60V53.7H40.655V55.68L40.535 55.2C40.623 54.896 40.771 54.62 40.979 54.372C41.195 54.124 41.439 53.928 41.711 53.784C41.991 53.64 42.279 53.568 42.575 53.568C42.711 53.568 42.839 53.58 42.959 53.604C43.087 53.628 43.187 53.656 43.259 53.688L42.935 55.032C42.839 54.992 42.731 54.96 42.611 54.936C42.499 54.904 42.387 54.888 42.275 54.888C42.059 54.888 41.851 54.932 41.651 55.02C41.459 55.1 41.287 55.216 41.135 55.368C40.991 55.512 40.875 55.684 40.787 55.884C40.699 56.076 40.655 56.288 40.655 56.52V60H39.407ZM46.4013 60.12C45.8813 60.12 45.4053 59.976 44.9733 59.688C44.5493 59.4 44.2093 59.008 43.9533 58.512C43.6973 58.016 43.5693 57.456 43.5693 56.832C43.5693 56.2 43.6973 55.64 43.9533 55.152C44.2173 54.656 44.5693 54.268 45.0093 53.988C45.4573 53.708 45.9573 53.568 46.5093 53.568C46.8373 53.568 47.1373 53.616 47.4093 53.712C47.6813 53.808 47.9173 53.944 48.1173 54.12C48.3253 54.288 48.4933 54.484 48.6213 54.708C48.7573 54.932 48.8413 55.172 48.8733 55.428L48.5973 55.332V53.7H49.8453V60H48.5973V58.5L48.8853 58.416C48.8373 58.632 48.7373 58.844 48.5853 59.052C48.4413 59.252 48.2533 59.432 48.0213 59.592C47.7973 59.752 47.5453 59.88 47.2653 59.976C46.9933 60.072 46.7053 60.12 46.4013 60.12ZM46.7253 58.98C47.1013 58.98 47.4333 58.888 47.7213 58.704C48.0093 58.52 48.2333 58.268 48.3933 57.948C48.5613 57.62 48.6453 57.248 48.6453 56.832C48.6453 56.424 48.5613 56.06 48.3933 55.74C48.2333 55.42 48.0093 55.168 47.7213 54.984C47.4333 54.8 47.1013 54.708 46.7253 54.708C46.3573 54.708 46.0293 54.8 45.7413 54.984C45.4613 55.168 45.2373 55.42 45.0693 55.74C44.9093 56.06 44.8293 56.424 44.8293 56.832C44.8293 57.248 44.9093 57.62 45.0693 57.948C45.2373 58.268 45.4613 58.52 45.7413 58.704C46.0293 58.888 46.3573 58.98 46.7253 58.98ZM51.547 60V53.7H52.795V55.044L52.567 55.188C52.631 54.98 52.731 54.78 52.867 54.588C53.011 54.396 53.183 54.228 53.383 54.084C53.591 53.932 53.811 53.812 54.043 53.724C54.283 53.636 54.527 53.592 54.775 53.592C55.135 53.592 55.451 53.652 55.723 53.772C55.995 53.892 56.219 54.072 56.395 54.312C56.571 54.552 56.699 54.852 56.779 55.212L56.587 55.164L56.671 54.96C56.759 54.776 56.879 54.604 57.031 54.444C57.191 54.276 57.371 54.128 57.571 54C57.771 53.872 57.983 53.772 58.207 53.7C58.431 53.628 58.651 53.592 58.867 53.592C59.339 53.592 59.727 53.688 60.031 53.88C60.343 54.072 60.575 54.364 60.727 54.756C60.887 55.148 60.967 55.636 60.967 56.22V60H59.719V56.292C59.719 55.932 59.671 55.64 59.575 55.416C59.487 55.184 59.351 55.012 59.167 54.9C58.983 54.788 58.747 54.732 58.459 54.732C58.235 54.732 58.023 54.772 57.823 54.852C57.631 54.924 57.463 55.028 57.319 55.164C57.175 55.3 57.063 55.46 56.983 55.644C56.903 55.82 56.863 56.016 56.863 56.232V60H55.615V56.268C55.615 55.94 55.567 55.664 55.471 55.44C55.375 55.208 55.235 55.032 55.051 54.912C54.867 54.792 54.643 54.732 54.379 54.732C54.155 54.732 53.947 54.772 53.755 54.852C53.563 54.924 53.395 55.028 53.251 55.164C53.107 55.292 52.995 55.448 52.915 55.632C52.835 55.808 52.795 56 52.795 56.208V60H51.547Z" fill="black"/>
</svg>
