<svg width="52" height="63" viewBox="0 0 52 63" fill="none" xmlns="http://www.w3.org/2000/svg">
<rect x="6" width="40" height="40" rx="20" fill="#0A66C2"/>
<path d="M35.376 9H16.624C16.1933 9 15.7802 9.1711 15.4757 9.47567C15.1711 9.78023 15 10.1933 15 10.624V29.376C15 29.8067 15.1711 30.2198 15.4757 30.5243C15.7802 30.8289 16.1933 31 16.624 31H35.376C35.8067 31 36.2198 30.8289 36.5243 30.5243C36.8289 30.2198 37 29.8067 37 29.376V10.624C37 10.1933 36.8289 9.78023 36.5243 9.47567C36.2198 9.1711 35.8067 9 35.376 9ZM21.5572 27.7413H18.2496V17.2347H21.5572V27.7413ZM19.9011 15.7788C19.5259 15.7766 19.1598 15.6634 18.8488 15.4534C18.5379 15.2434 18.2962 14.946 18.1541 14.5987C18.0121 14.2514 17.9761 13.8699 18.0507 13.5022C18.1253 13.1345 18.3072 12.7971 18.5733 12.5326C18.8395 12.2682 19.178 12.0885 19.5462 12.0163C19.9144 11.944 20.2957 11.9825 20.642 12.1267C20.9884 12.271 21.2842 12.5147 21.4923 12.8269C21.7003 13.1392 21.8111 13.5061 21.8108 13.8813C21.8144 14.1324 21.7673 14.3818 21.6724 14.6144C21.5776 14.847 21.4368 15.0582 21.2586 15.2352C21.0804 15.4123 20.8684 15.5517 20.6351 15.6451C20.4019 15.7384 20.1523 15.7839 19.9011 15.7788ZM33.7489 27.7504H30.4428V22.0106C30.4428 20.3178 29.7232 19.7953 28.7943 19.7953C27.8135 19.7953 26.851 20.5347 26.851 22.0533V27.7504H23.5433V17.2424H26.7242V18.6983H26.7669C27.0863 18.0521 28.2046 16.9475 29.9111 16.9475C31.7567 16.9475 33.7504 18.0429 33.7504 21.2513L33.7489 27.7504Z" fill="white"/>
<path opacity="0.6" d="M1.176 60V51.6H2.472V58.752H6.408V60H1.176ZM8.25159 60V53.7H9.48759V60H8.25159ZM8.85159 52.308C8.58759 52.308 8.38359 52.24 8.23959 52.104C8.09559 51.968 8.02359 51.776 8.02359 51.528C8.02359 51.296 8.09559 51.108 8.23959 50.964C8.39159 50.82 8.59559 50.748 8.85159 50.748C9.11559 50.748 9.31959 50.816 9.46359 50.952C9.60759 51.088 9.67959 51.28 9.67959 51.528C9.67959 51.76 9.60359 51.948 9.45159 52.092C9.30759 52.236 9.10759 52.308 8.85159 52.308ZM11.3874 60V53.7H12.6234V54.996L12.4074 55.14C12.4874 54.86 12.6434 54.604 12.8754 54.372C13.1074 54.132 13.3834 53.94 13.7034 53.796C14.0234 53.644 14.3514 53.568 14.6874 53.568C15.1674 53.568 15.5674 53.664 15.8874 53.856C16.2074 54.04 16.4474 54.324 16.6074 54.708C16.7674 55.092 16.8474 55.576 16.8474 56.16V60H15.6114V56.244C15.6114 55.884 15.5634 55.588 15.4674 55.356C15.3714 55.116 15.2234 54.944 15.0234 54.84C14.8234 54.728 14.5754 54.68 14.2794 54.696C14.0394 54.696 13.8194 54.736 13.6194 54.816C13.4194 54.888 13.2434 54.992 13.0914 55.128C12.9474 55.264 12.8314 55.424 12.7434 55.608C12.6634 55.784 12.6234 55.976 12.6234 56.184V60H12.0114C11.9074 60 11.8034 60 11.6994 60C11.5954 60 11.4914 60 11.3874 60ZM19.6522 58.032L19.5922 56.688L22.6042 53.7H24.2722L19.6522 58.032ZM18.5242 60V51.12H19.7602V60H18.5242ZM22.7722 60L20.3962 57.228L21.2722 56.424L24.3562 60H22.7722ZM28.0149 60.12C27.3669 60.12 26.7909 59.984 26.2869 59.712C25.7909 59.432 25.3989 59.052 25.1109 58.572C24.8309 58.092 24.6909 57.54 24.6909 56.916C24.6909 56.42 24.7709 55.968 24.9309 55.56C25.0909 55.152 25.3109 54.8 25.5909 54.504C25.8789 54.2 26.2189 53.968 26.6109 53.808C27.0109 53.64 27.4429 53.556 27.9069 53.556C28.3149 53.556 28.6949 53.636 29.0469 53.796C29.3989 53.948 29.7029 54.16 29.9589 54.432C30.2229 54.704 30.4229 55.028 30.5589 55.404C30.7029 55.772 30.7709 56.176 30.7629 56.616L30.7509 57.144H25.6029L25.3269 56.16H29.6829L29.5029 56.364V56.076C29.4789 55.812 29.3909 55.576 29.2389 55.368C29.0869 55.16 28.8949 54.996 28.6629 54.876C28.4309 54.756 28.1789 54.696 27.9069 54.696C27.4749 54.696 27.1109 54.78 26.8149 54.948C26.5189 55.108 26.2949 55.348 26.1429 55.668C25.9909 55.98 25.9149 56.368 25.9149 56.832C25.9149 57.272 26.0069 57.656 26.1909 57.984C26.3749 58.304 26.6349 58.552 26.9709 58.728C27.3069 58.904 27.6949 58.992 28.1349 58.992C28.4469 58.992 28.7349 58.94 28.9989 58.836C29.2709 58.732 29.5629 58.544 29.8749 58.272L30.4989 59.148C30.3069 59.34 30.0709 59.508 29.7909 59.652C29.5189 59.796 29.2269 59.912 28.9149 60C28.6109 60.08 28.3109 60.12 28.0149 60.12ZM34.7342 60.12C34.1582 60.12 33.6422 59.98 33.1862 59.7C32.7382 59.412 32.3822 59.024 32.1182 58.536C31.8542 58.04 31.7222 57.476 31.7222 56.844C31.7222 56.212 31.8502 55.652 32.1062 55.164C32.3702 54.668 32.7262 54.28 33.1742 54C33.6222 53.712 34.1302 53.568 34.6982 53.568C35.0102 53.568 35.3102 53.62 35.5982 53.724C35.8942 53.82 36.1582 53.956 36.3902 54.132C36.6222 54.3 36.8022 54.488 36.9302 54.696C37.0662 54.896 37.1342 55.1 37.1342 55.308L36.7742 55.332V51.12H38.0102V60H36.7742V58.5H37.0142C37.0142 58.692 36.9502 58.884 36.8222 59.076C36.6942 59.26 36.5222 59.432 36.3062 59.592C36.0982 59.752 35.8542 59.88 35.5742 59.976C35.3022 60.072 35.0222 60.12 34.7342 60.12ZM34.9022 59.052C35.2782 59.052 35.6102 58.956 35.8982 58.764C36.1862 58.572 36.4102 58.312 36.5702 57.984C36.7382 57.648 36.8222 57.268 36.8222 56.844C36.8222 56.42 36.7382 56.044 36.5702 55.716C36.4102 55.38 36.1862 55.116 35.8982 54.924C35.6102 54.732 35.2782 54.636 34.9022 54.636C34.5262 54.636 34.1942 54.732 33.9062 54.924C33.6182 55.116 33.3902 55.38 33.2222 55.716C33.0622 56.044 32.9822 56.42 32.9822 56.844C32.9822 57.268 33.0622 57.648 33.2222 57.984C33.3902 58.312 33.6182 58.572 33.9062 58.764C34.1942 58.956 34.5262 59.052 34.9022 59.052ZM39.7117 60V58.8H41.0677V52.8H39.7117V51.6H43.7197V52.8H42.3637V58.8H43.7197V60H39.7117ZM45.4421 60V53.7H46.6781V54.996L46.4621 55.14C46.5421 54.86 46.6981 54.604 46.9301 54.372C47.1621 54.132 47.4381 53.94 47.7581 53.796C48.0781 53.644 48.4061 53.568 48.7421 53.568C49.2221 53.568 49.6221 53.664 49.9421 53.856C50.2621 54.04 50.5021 54.324 50.6621 54.708C50.8221 55.092 50.9021 55.576 50.9021 56.16V60H49.6661V56.244C49.6661 55.884 49.6181 55.588 49.5221 55.356C49.4261 55.116 49.2781 54.944 49.0781 54.84C48.8781 54.728 48.6301 54.68 48.3341 54.696C48.0941 54.696 47.8741 54.736 47.6741 54.816C47.4741 54.888 47.2981 54.992 47.1461 55.128C47.0021 55.264 46.8861 55.424 46.7981 55.608C46.7181 55.784 46.6781 55.976 46.6781 56.184V60H46.0661C45.9621 60 45.8581 60 45.7541 60C45.6501 60 45.5461 60 45.4421 60Z" fill="black"/>
</svg>
