<svg width="39" height="39" viewBox="0 0 39 39" fill="none" xmlns="http://www.w3.org/2000/svg">
<path d="M16.1759 32.4261L9.15892 33.7655L2.14197 32.4261V17.6536L9.15892 16.1862L16.1759 17.6536V32.4261ZM22.8242 14.6987V6.57394L29.8411 5.46609L36.8581 6.57394V21.3464L29.8411 22.464L22.8242 21.3464V18.0229V14.6987Z" fill="#ECECF1"/>
<path d="M36.8581 4.87075V6.57395H22.8242V4.87075C22.8242 4.14703 23.1117 3.45295 23.6234 2.94121C24.1351 2.42946 24.8292 2.14197 25.5529 2.14197H34.1299C34.8535 2.14213 35.5474 2.4297 36.059 2.94142C36.5707 3.45315 36.8581 4.14714 36.8581 4.87075ZM36.8581 21.3464V23.0496C36.8581 23.7733 36.5706 24.4674 36.0588 24.9792C35.5471 25.4909 34.853 25.7784 34.1293 25.7784H25.5523C24.8286 25.7784 24.1345 25.4909 23.6228 24.9792C23.111 24.4674 22.8235 23.7733 22.8235 23.0496V21.3464H36.8581ZM16.1759 32.4261V34.1293C16.1759 34.4876 16.1053 34.8425 15.9682 35.1735C15.831 35.5046 15.63 35.8054 15.3766 36.0588C15.1232 36.3122 14.8224 36.5132 14.4914 36.6503C14.1603 36.7875 13.8054 36.8581 13.4471 36.8581H4.87075C4.14703 36.8581 3.45295 36.5706 2.94121 36.0588C2.42946 35.5471 2.14197 34.853 2.14197 34.1293V32.4261H16.1759ZM16.1759 15.9504V17.6536H2.14197V15.9504C2.14197 15.2267 2.42946 14.5326 2.94121 14.0209C3.45295 13.5091 4.14703 13.2216 4.87075 13.2216H13.4477C13.806 13.2216 14.1608 13.2922 14.4919 13.4294C14.8229 13.5665 15.1237 13.7675 15.377 14.0209C15.6304 14.2743 15.8313 14.5751 15.9684 14.9062C16.1054 15.2373 16.176 15.5921 16.1759 15.9504Z" fill="#4F737C"/>
<path d="M35.0117 31.6875C35.6235 31.6875 36.1195 31.1915 36.1195 30.5796C36.1195 29.9678 35.6235 29.4718 35.0117 29.4718C34.3998 29.4718 33.9038 29.9678 33.9038 30.5796C33.9038 31.1915 34.3998 31.6875 35.0117 31.6875Z" fill="#25D9F8"/>
<path d="M28.7333 36.858C29.1412 36.858 29.4718 36.5274 29.4718 36.1195C29.4718 35.7116 29.1412 35.3809 28.7333 35.3809C28.3254 35.3809 27.9947 35.7116 27.9947 36.1195C27.9947 36.5274 28.3254 36.858 28.7333 36.858Z" fill="#ECECF1"/>
<path d="M20.6078 30.9489C21.0157 30.9489 21.3464 30.6183 21.3464 30.2104C21.3464 29.8025 21.0157 29.4718 20.6078 29.4718C20.1999 29.4718 19.8693 29.8025 19.8693 30.2104C19.8693 30.6183 20.1999 30.9489 20.6078 30.9489Z" fill="#FF641A"/>
<path d="M19.1307 9.52818C19.5386 9.52818 19.8693 9.19752 19.8693 8.78962C19.8693 8.38172 19.5386 8.05106 19.1307 8.05106C18.7228 8.05106 18.3922 8.38172 18.3922 8.78962C18.3922 9.19752 18.7228 9.52818 19.1307 9.52818Z" fill="#ECECF1"/>
<path d="M13.5909 6.57393C14.2027 6.57393 14.6987 6.07793 14.6987 5.46609C14.6987 4.85424 14.2027 4.35825 13.5909 4.35825C12.979 4.35825 12.483 4.85424 12.483 5.46609C12.483 6.07793 12.979 6.57393 13.5909 6.57393Z" fill="#25D9F8"/>
<path d="M4.35825 6.57393C4.76615 6.57393 5.09682 6.24326 5.09682 5.83536C5.09682 5.42747 4.76615 5.0968 4.35825 5.0968C3.95036 5.0968 3.61969 5.42747 3.61969 5.83536C3.61969 6.24326 3.95036 6.57393 4.35825 6.57393Z" fill="#4F737C"/>
<path d="M31.4712 14.1765L29.9941 12.6994C29.8537 12.5701 29.6689 12.5001 29.4781 12.504C29.2874 12.5079 29.1055 12.5854 28.9706 12.7203C28.8357 12.8553 28.7581 13.0371 28.7542 13.2279C28.7503 13.4186 28.8203 13.6035 28.9496 13.7438L29.1659 13.9602H21.5853C20.7387 13.9611 19.9271 14.2979 19.3285 14.8965C18.7299 15.4951 18.3931 16.3067 18.3922 17.1533V23.3238C18.3917 23.7788 18.2107 24.215 17.889 24.5367C17.5673 24.8584 17.1311 25.0393 16.6762 25.0398H8.78965C8.59377 25.0398 8.40591 25.1176 8.26741 25.2561C8.1289 25.3946 8.05109 25.5825 8.05109 25.7784C8.05109 25.9743 8.1289 26.1621 8.26741 26.3006C8.40591 26.4391 8.59377 26.5169 8.78965 26.5169H16.6762C17.5228 26.516 18.3344 26.1792 18.933 25.5806C19.5316 24.982 19.8683 24.1704 19.8693 23.3238V17.1533C19.8698 16.6983 20.0507 16.2621 20.3724 15.9404C20.6942 15.6187 21.1303 15.4378 21.5853 15.4373H29.1659L28.9496 15.6536C28.8203 15.7939 28.7503 15.9788 28.7542 16.1696C28.7581 16.3603 28.8357 16.5422 28.9706 16.6771C29.1055 16.812 29.2874 16.8895 29.4781 16.8934C29.6689 16.8974 29.8537 16.8274 29.9941 16.6981L31.4712 15.221C31.6094 15.0823 31.687 14.8945 31.687 14.6987C31.687 14.5029 31.6094 14.3152 31.4712 14.1765Z" fill="#FF641A"/>
<path d="M8.7896 27.9941C10.0133 27.9941 11.0053 27.0021 11.0053 25.7784C11.0053 24.5547 10.0133 23.5627 8.7896 23.5627C7.56591 23.5627 6.57391 24.5547 6.57391 25.7784C6.57391 27.0021 7.56591 27.9941 8.7896 27.9941Z" fill="#25D9F8"/>
</svg>
