<svg width="38" height="38" viewBox="0 0 38 38" fill="none" xmlns="http://www.w3.org/2000/svg">
<path d="M35.8031 18.8516C35.0016 18.7625 34.3187 19.3563 34.2594 20.1578C33.6656 27.1047 27.7281 32.5375 20.7516 32.5375C13.5078 32.5375 7.57031 26.8078 7.21406 19.6531H10.0344C10.5094 19.6531 10.8062 19.1188 10.5094 18.7328L6.23437 12.5578C5.99687 12.2313 5.49219 12.2313 5.25469 12.5578L1.00937 18.7031C0.742186 19.0891 1.00937 19.6234 1.48437 19.6234H4.33437C4.69062 28.3516 11.9047 35.3578 20.7219 35.3578C29.1531 35.3578 36.3375 28.7672 37.0797 20.3953C37.1687 19.6234 36.575 18.9109 35.8031 18.8516ZM14.9031 6.56094C15.0812 6.56094 15.2891 6.53125 15.4672 6.44219C16.6547 5.9375 17.9016 5.61094 19.1781 5.4625C19.95 5.37344 20.5141 4.66094 20.425 3.88906C20.3359 3.11719 19.6234 2.55313 18.8516 2.64219C17.3078 2.82031 15.7937 3.20625 14.3391 3.82969C13.6266 4.12656 13.2703 4.95781 13.5969 5.7C13.8344 6.23438 14.3687 6.56094 14.9031 6.56094ZM24.2547 5.84844C25.9172 6.29375 27.4312 7.03594 28.8266 8.04531C29.0937 8.22344 29.3906 8.3125 29.6578 8.3125C30.1031 8.3125 30.5187 8.10469 30.8156 7.74844C31.2906 7.125 31.1422 6.23438 30.5187 5.75938C28.8562 4.5125 26.9859 3.62188 24.9969 3.0875C24.225 2.87969 23.4531 3.325 23.2453 4.09688C23.0375 4.86875 23.4828 5.64063 24.2547 5.84844ZM33.8141 15.2594C33.9922 15.8828 34.5562 16.2984 35.1797 16.2984C35.2984 16.2984 35.4469 16.2688 35.5656 16.2391C36.3078 16.0313 36.7531 15.2297 36.5453 14.4875C36.1297 12.9734 35.4766 11.5484 34.6453 10.2125C34.2297 9.55938 33.3391 9.35156 32.6859 9.76719C32.0328 10.1828 31.825 11.0734 32.2406 11.7266C32.9234 12.8547 33.4578 14.0125 33.8141 15.2594Z" fill="#343433"/>
</svg>
