<svg width="41" height="63" viewBox="0 0 41 63" fill="none" xmlns="http://www.w3.org/2000/svg">
<rect width="40" height="40" rx="20" fill="#1D9BF0"/>
<path d="M16.34 30.55C25.21 30.55 30.06 23.2 30.06 16.83C30.06 16.62 30.06 16.41 30.05 16.21C30.99 15.53 31.81 14.68 32.46 13.71C31.6 14.09 30.67 14.35 29.69 14.47C30.69 13.87 31.45 12.93 31.81 11.8C30.88 12.35 29.85 12.75 28.75 12.97C27.87 12.03 26.62 11.45 25.23 11.45C22.57 11.45 20.41 13.61 20.41 16.27C20.41 16.65 20.45 17.02 20.54 17.37C16.53 17.17 12.98 15.25 10.6 12.33C10.19 13.04 9.94997 13.87 9.94997 14.75C9.94997 16.42 10.8 17.9 12.1 18.76C11.31 18.74 10.57 18.52 9.91997 18.16C9.91997 18.18 9.91997 18.2 9.91997 18.22C9.91997 20.56 11.58 22.5 13.79 22.95C13.39 23.06 12.96 23.12 12.52 23.12C12.21 23.12 11.91 23.09 11.61 23.03C12.22 24.95 14 26.34 16.11 26.38C14.46 27.67 12.38 28.44 10.12 28.44C9.72997 28.44 9.34997 28.42 8.96997 28.37C11.08 29.75 13.62 30.55 16.34 30.55Z" fill="white"/>
<path opacity="0.6" d="M2.772 60V52.848H0.42V51.6H6.492V52.848H4.068V60H2.772ZM8.48231 60L6.33431 53.7L7.58231 53.688L9.11831 58.404L8.84231 58.38L10.5103 54.696H11.2543L12.9343 58.392L12.6103 58.416L14.1583 53.7H15.4063L13.2823 60H12.4303L10.6783 55.992L10.9543 56.028L9.32231 60H8.48231ZM16.736 60V53.7H17.972V60H16.736ZM17.336 52.308C17.072 52.308 16.868 52.24 16.724 52.104C16.58 51.968 16.508 51.776 16.508 51.528C16.508 51.296 16.58 51.108 16.724 50.964C16.876 50.82 17.08 50.748 17.336 50.748C17.6 50.748 17.804 50.816 17.948 50.952C18.092 51.088 18.164 51.28 18.164 51.528C18.164 51.76 18.088 51.948 17.936 52.092C17.792 52.236 17.592 52.308 17.336 52.308ZM20.6518 60V52.092H21.8878V60H20.6518ZM19.3438 54.9V53.7H23.3518V54.9H19.3438ZM25.2573 60V52.092H26.4933V60H25.2573ZM23.9493 54.9V53.7H27.9573V54.9H23.9493ZM31.9642 60.12C31.3162 60.12 30.7402 59.984 30.2362 59.712C29.7402 59.432 29.3482 59.052 29.0602 58.572C28.7802 58.092 28.6402 57.54 28.6402 56.916C28.6402 56.42 28.7202 55.968 28.8802 55.56C29.0402 55.152 29.2602 54.8 29.5402 54.504C29.8282 54.2 30.1682 53.968 30.5602 53.808C30.9602 53.64 31.3922 53.556 31.8562 53.556C32.2642 53.556 32.6442 53.636 32.9962 53.796C33.3482 53.948 33.6522 54.16 33.9082 54.432C34.1722 54.704 34.3722 55.028 34.5082 55.404C34.6522 55.772 34.7202 56.176 34.7122 56.616L34.7002 57.144H29.5522L29.2762 56.16H33.6322L33.4522 56.364V56.076C33.4282 55.812 33.3402 55.576 33.1882 55.368C33.0362 55.16 32.8442 54.996 32.6122 54.876C32.3802 54.756 32.1282 54.696 31.8562 54.696C31.4242 54.696 31.0602 54.78 30.7642 54.948C30.4682 55.108 30.2442 55.348 30.0922 55.668C29.9402 55.98 29.8642 56.368 29.8642 56.832C29.8642 57.272 29.9562 57.656 30.1402 57.984C30.3242 58.304 30.5842 58.552 30.9202 58.728C31.2562 58.904 31.6442 58.992 32.0842 58.992C32.3962 58.992 32.6842 58.94 32.9482 58.836C33.2202 58.732 33.5122 58.544 33.8242 58.272L34.4482 59.148C34.2562 59.34 34.0202 59.508 33.7402 59.652C33.4682 59.796 33.1762 59.912 32.8642 60C32.5602 60.08 32.2602 60.12 31.9642 60.12ZM36.0554 60V53.7H37.3034V55.68L37.1834 55.2C37.2714 54.896 37.4194 54.62 37.6274 54.372C37.8434 54.124 38.0874 53.928 38.3594 53.784C38.6394 53.64 38.9274 53.568 39.2234 53.568C39.3594 53.568 39.4874 53.58 39.6074 53.604C39.7354 53.628 39.8354 53.656 39.9074 53.688L39.5834 55.032C39.4874 54.992 39.3794 54.96 39.2594 54.936C39.1474 54.904 39.0354 54.888 38.9234 54.888C38.7074 54.888 38.4994 54.932 38.2994 55.02C38.1074 55.1 37.9354 55.216 37.7834 55.368C37.6394 55.512 37.5234 55.684 37.4354 55.884C37.3474 56.076 37.3034 56.288 37.3034 56.52V60H36.0554Z" fill="black"/>
</svg>
