<svg width="60" height="60" viewBox="0 0 60 60" fill="none" xmlns="http://www.w3.org/2000/svg">
<g clip-path="url(#clip0_4539_71615)">
<path d="M60.3095 0H0V60H60.3095V0Z" fill="#603BE5"/>
<path opacity="0.4" d="M37.5408 59.9935C31.375 53.8595 17.667 39.9782 17.667 39.9782L17.6827 21.1904L27.213 21.405L30.4001 22.9268L31.871 23.9024C31.871 23.9024 33.3606 25.2829 37.0194 29.0244V21.405H40.6968C40.6968 21.405 54.372 36.866 60.4575 42.9206V48.2865C60.4155 49.4541 60.4575 52.4325 60.4575 52.4325V55.6035V59.9935H53.1025L48.4283 59.9835C48.4283 59.9835 42.9368 59.9995 41.0142 59.9995C38.8529 60.002 37.531 59.997 37.5408 59.9935Z" fill="#282828" fill-opacity="0.5"/>
<path d="M23.9776 21.1259C25.9192 21.1259 27.6226 21.5034 29.0877 22.2586C30.5704 23.0137 31.709 24.0937 32.5033 25.4986C33.3153 26.8859 33.7213 28.5015 33.7213 30.3454C33.7213 32.1893 33.3153 33.8049 32.5033 35.1922C31.709 36.562 30.5704 37.6244 29.0877 38.3795C27.6226 39.1347 25.9192 39.5122 23.9776 39.5122H17.5171V21.1259H23.9776ZM23.8452 36.3776C25.7869 36.3776 27.2872 35.8508 28.3463 34.7971C29.4054 33.7434 29.935 32.2595 29.935 30.3454C29.935 28.4312 29.4054 26.9386 28.3463 25.8673C27.2872 24.7786 25.7869 24.2342 23.8452 24.2342H21.2239V36.3776H23.8452ZM40.8118 27.9483V35.0078C40.8118 35.4995 40.9265 35.8595 41.156 36.0878C41.4031 36.2986 41.8091 36.4039 42.374 36.4039H44.095V39.5122H41.765C38.6407 39.5122 37.0785 38.002 37.0785 34.9815V27.9483H35.331V24.9191H37.0785V21.3103H40.8118V24.9191H44.095V27.9483H40.8118Z" fill="#F4F5FC"/>
</g>
<defs>
<clipPath id="clip0_4539_71615">
<rect width="60" height="60" fill="white"/>
</clipPath>
</defs>
</svg>
